<?xml version="1.0" standalone="no"?>
  <!DOCTYPE svg PUBLIC "-//W3C//DTD SVG 1.1//EN" "http://www.w3.org/Graphics/SVG/1.1/DTD/svg11.dtd" >
  <svg>
  <metadata>
  Created by font-carrier
  </metadata>
  <defs>
  <font id="KudryashevHeadline-Regular" horiz-adv-x="1199" vert-adv-y="1199" >
    <font-face
      
      font-family="Kudryashev Headline"
      
      font-weight="400"
      
      font-stretch="normal"
      
      units-per-em="1000"
      
      ascent="772"
      
      descent="-228"
      
    />
      <missing-glyph />

      

      
      <glyph glyph-name="uni21" unicode="&#x21;" d="M88 709Q94 736 141 736Q188 736 194 709Q173 534 161 384L147 158L135 158Q125 334 121 384Q109 534 88 709M177 70.50Q177 70.50 184 63.25Q191 56 191 35Q191 14 177-0.50Q163-15 141-15Q120-15 105.50-0.50Q91 14 91 35Q91 56 106 70.50Q121 85 141 85Q163 85 177 70.50Z"  horiz-adv-x="282" vert-adv-y="1000"  />

      
      <glyph glyph-name="uni22" unicode="&#x22;" d="M117 724L84 544L72 544Q68 562 40 723Q60 736 78 736Q98 736 117 724M259 724L226 544L214 544Q211 562 182 723Q202 736 220 736Q240 736 259 724Z"  horiz-adv-x="299" vert-adv-y="1000"  />

      
      <glyph glyph-name="uni23" unicode="&#x23;" d="M389 0L429 214L215 214L174 0L157 0L198 214L20 214L22 230L201 230L253 509L75 509L77 525L256 525L293 720L309 720L272 525L488 525L524 720L542 720L504 525L692 525L689 509L501 509L450 230L635 230L633 214L447 214L406 0L389 0M269 509L218 230L432 230L484 509L269 509Z"  horiz-adv-x="712" vert-adv-y="1000"  />

      
      <glyph glyph-name="uni24" unicode="&#x24;" d="M272-100L260-100L260-14Q148-11 42 41Q42 34 42.50 20Q43 6 43 0L31 0L16 194L28 194L33 151Q61 91 123 46.50Q185 2 260-2L260 337L248 343Q198 370 168.50 388.50Q139 407 106 435Q73 463 57.50 496Q42 529 42 568Q42 643 93 690.50Q144 738 260 739L260 811L272 811L272 739Q366 736 456 688L456 723L468 723L478 548L466 548L463 586Q447 642 401.50 683.50Q356 725 272 727L272 431L298 418Q346 392 376 373Q406 354 441 324.50Q476 295 493 259Q510 223 510 181Q510 99 446.50 42.50Q383-14 272-14L272-100M437 137Q437 240 272 330L272-2Q356-1 396.50 38.50Q437 78 437 137M114 616Q114 558 152 517Q190 476 260 438L260 727Q114 726 114 616Z"  horiz-adv-x="528" vert-adv-y="1000"  />

      
      <glyph glyph-name="uni25" unicode="&#x25;" d="M332 588Q332 511 288 474Q244 437 191 437Q119 437 84 483Q49 529 49 588Q49 648 84 693.50Q119 739 191 739Q245 739 288.50 701.50Q332 664 332 588M269 588Q269 605 267.50 621.50Q266 638 259.50 665.50Q253 693 235.50 710Q218 727 191 727Q112 727 112 588Q112 449 191 449Q269 449 269 588M722 137Q722 60 678 23Q634-14 581-14Q509-14 474 32Q439 78 439 137Q439 197 474 242.50Q509 288 581 288Q635 288 678.50 250.50Q722 213 722 137M659 137Q659 154 657.50 170.50Q656 187 649.50 214.50Q643 242 625.50 259Q608 276 581 276Q502 276 502 137Q502-2 581-2Q659-2 659 137M632 730L132-13L117-3L617 741L632 730Z"  horiz-adv-x="771" vert-adv-y="1000"  />

      
      <glyph glyph-name="uni26" unicode="&#x26;" d="M721 318L692 318Q644 318 626 268Q594 165 523 94Q551 49 570 30Q589 11 613 11Q648 11 699 67L709 59Q673 16 642 1Q611-14 573-14Q503-14 457 45Q368-14 270-14Q160-14 96.50 35Q33 84 33 176Q33 252 82.50 303Q132 354 228 399Q165 495 165 581Q165 642 209 689Q253 736 325 736Q390 736 423.50 700.50Q457 665 457 612Q457 518 302 424L517 104Q545 132 568 178.50Q591 225 591 269Q591 297 575 307.50Q559 318 524 318L497 318L497 330L721 330L721 318M410 627Q410 667 387 695.50Q364 724 328 724Q286 724 259.50 689.50Q233 655 233 604Q233 518 293 435Q356 482 383 527.50Q410 573 410 627M451 54L235 387Q196 363 161 314.50Q126 266 126 203Q126 121 170 65.50Q214 10 313 10Q379 10 451 54Z"  horiz-adv-x="739" vert-adv-y="1000"  />

      
      <glyph glyph-name="uni27" unicode="&#x27;" d="M117 724L84 544L72 544Q68 562 40 723Q60 736 78 736Q98 736 117 724Z"  horiz-adv-x="157" vert-adv-y="1000"  />

      
      <glyph glyph-name="uni28" unicode="&#x28;" d="M348-92L341-102Q210-24 125.50 102Q41 228 41 373Q41 518 125 639Q209 760 341 839L348 829Q283 780 236.50 712.50Q190 645 169 578Q148 511 140 462Q132 413 132 373Q132 333 140.50 282Q149 231 170 163Q191 95 237.50 26.50Q284-42 348-92Z"  horiz-adv-x="359" vert-adv-y="1000"  />

      
      <glyph glyph-name="uni29" unicode="&#x29;" d="M18-102L11-92Q75-42 121.50 26.50Q168 95 189 163Q210 231 218.50 282Q227 333 227 373Q227 413 219 462Q211 511 190 578Q169 645 122.50 712.50Q76 780 11 829L18 839Q150 760 234 639Q318 518 318 373Q318 228 233.50 102Q149-24 18-102Z"  horiz-adv-x="359" vert-adv-y="1000"  />

      
      <glyph glyph-name="uni2a" unicode="&#x2a;" d="M219 550L219 556L81 601Q80 618 93 640Q106 662 123 668L226 570Q232 579 243 581L212 725Q223 735 251 735Q278 735 290 724L259 581Q270 577 276 570L379 668Q396 662 409 640Q422 618 421 601Q327 569 282 556Q283 554 283 550Q283 546 282 544L421 499Q422 482 409 460Q396 438 379 432L276 529Q269 521 259 519L290 376Q278 365 251 365Q223 365 212 375L243 518Q232 521 226 529L123 432Q106 438 93 460Q80 482 81 499L219 544L219 550Z"  horiz-adv-x="502" vert-adv-y="1000"  />

      
      <glyph glyph-name="uni2b" unicode="&#x2b;" d="M519 338L272 338L272 95L256 95L256 338L9 338L9 354L256 354L256 597L272 597L272 354L519 354L519 338Z"  horiz-adv-x="528" vert-adv-y="1000"  />

      
      <glyph glyph-name="uni2c" unicode="&#x2c;" d="M162 33Q162-18 135-70Q108-122 66-160L57-151Q119-88 119-34Q119-21 113.50-11.50Q108-2 103.50 1.50Q99 5 84 15Q53 35 53 61Q53 80 67 93Q81 106 104 106Q129 106 145.50 87Q162 68 162 33Z"  horiz-adv-x="215" vert-adv-y="1000"  />

      
      <glyph glyph-name="uni2d" unicode="&#x2d;" d="M50 272L50 288L304 288L304 272L50 272Z"  horiz-adv-x="354" vert-adv-y="1000"  />

      
      <glyph glyph-name="uni2e" unicode="&#x2e;" d="M139 70.50Q139 70.50 146 63.25Q153 56 153 35Q153 14 139-0.50Q125-15 103-15Q82-15 67.50-0.50Q53 14 53 35Q53 56 68 70.50Q83 85 103 85Q125 85 139 70.50Z"  horiz-adv-x="206" vert-adv-y="1000"  />

      
      <glyph glyph-name="uni2f" unicode="&#x2f;" d="M588 790L-5-93L-20-83L573 800L588 790Z"  horiz-adv-x="568" vert-adv-y="1000"  />

      
      <glyph glyph-name="uni30" unicode="&#x30;" d="M480 489Q480 489 486.50 457.50Q493 426 493 363Q493 300 480 237Q467 174 441 116Q415 58 369 22Q323-14 263-14Q204-14 157.50 22Q111 58 85.50 116Q60 174 47.50 237Q35 300 35 363Q35 413 42.50 463.50Q50 514 67.50 564Q85 614 110.50 652.50Q136 691 175.50 715Q215 739 263 739Q322 739 368.50 703Q415 667 441 609.50Q467 552 480 489M409 363Q409 421 404 475Q399 529 385 590.50Q371 652 339.50 689.50Q308 727 263 727Q227 727 199.50 700Q172 673 157 634.50Q142 596 133 543Q124 490 121.50 448Q119 406 119 363Q119 173 161 85.50Q203-2 263-2Q324-2 366.50 86Q409 174 409 363Z"  horiz-adv-x="528" vert-adv-y="1000"  />

      
      <glyph glyph-name="uni31" unicode="&#x31;" d="M381 0L134 0L134 12L156 12Q219 12 219 67L219 601Q160 541 93 495L86 505Q221 610 275 732L296 732L296 67Q296 12 361 12L381 12L381 0Z"  horiz-adv-x="528" vert-adv-y="1000"  />

      
      <glyph glyph-name="uni32" unicode="&#x32;" d="M472 137L458 0L27 0L27 14L211 206Q297 295 342.50 369Q388 443 388 527Q388 629 341.50 678Q295 727 231 727Q143 727 143 660Q143 655 146 640Q149 625 149 616Q149 596 136 584.50Q123 573 101 573Q83 573 69.50 586.50Q56 600 56 626Q56 668 104.50 703.50Q153 739 238 739Q350 739 411 684.50Q472 630 472 532Q472 470 428.50 408Q385 346 312 276L94 65L327 65Q391 65 419.50 78Q448 91 456 118L460 137L472 137Z"  horiz-adv-x="528" vert-adv-y="1000"  />

      
      <glyph glyph-name="uni33" unicode="&#x33;" d="M486 204Q486 105 422 45.50Q358-14 233-14Q130-14 73.50 27.50Q17 69 17 120Q17 144 31.50 156Q46 168 65 168Q83 168 96.50 156Q110 144 110 121Q110 109 104.50 93Q99 77 99 63Q99 35 137 16.50Q175-2 221-2Q275-2 313 19Q351 40 369 75Q387 110 394.50 144.50Q402 179 402 218Q402 403 216 403Q179 403 147 395L147 423Q180 414 228 414Q293 414 341.50 457Q390 500 390 569Q390 640 349.50 683.50Q309 727 239 727Q184 727 159 704Q134 681 141 645Q143 633 143 626Q143 604 129.50 593Q116 582 98 582Q80 582 67 594.50Q54 607 54 633Q54 672 98 705.50Q142 739 239 739Q305 739 352 724Q399 709 422.50 683.50Q446 658 456 631Q466 604 466 572Q466 517 422 471Q378 425 303 410Q382 396 434 341Q486 286 486 204Z"  horiz-adv-x="528" vert-adv-y="1000"  />

      
      <glyph glyph-name="uni34" unicode="&#x34;" d="M26 174L328 174L328 457L405 519L405 174L502 174L502 162L405 162L405 67Q405 34 420 23Q435 12 469 12L502 12L502 0L228 0L228 12L262 12Q293 12 310.50 23Q328 34 328 67L328 162L12 162L12 174Q164 398 291 616Q352 725 358 737L431 696L26 174Z"  horiz-adv-x="528" vert-adv-y="1000"  />

      
      <glyph glyph-name="uni35" unicode="&#x35;" d="M480 241Q480 128 406 57Q332-14 227-14Q147-14 93 18.50Q39 51 39 101Q39 128 53 140.50Q67 153 87 153Q109 153 120 141Q131 129 131 112Q131 100 125.50 83.50Q120 67 120 55Q120-2 221-2Q308-2 352 69Q396 140 396 242Q396 273 391.50 298.50Q387 324 369.50 356.50Q352 389 321.50 411.50Q291 434 234.50 450Q178 466 101 466L134 723L353 723Q436 723 444 754Q444 755 444 758L445 760L458 760L437 658L138 658Q133 625 125.50 564Q118 503 115 482L153 482Q229 482 287.50 468Q346 454 382 431Q418 408 440.50 375.50Q463 343 471.50 310.50Q480 278 480 241Z"  horiz-adv-x="528" vert-adv-y="1000"  />

      
      <glyph glyph-name="uni36" unicode="&#x36;" d="M495 229Q495 125 434.50 55.50Q374-14 272-14Q33-14 33 315Q33 395 51 469.50Q69 544 104 605Q139 666 196 702.50Q253 739 325 739Q393 739 429.50 714.50Q466 690 466 653Q466 628 453 616Q440 604 420 604Q372 604 372 651Q372 656 374.50 671Q377 686 377 690Q377 707 362.50 717Q348 727 325 727Q228 727 173.50 638Q119 549 115 390Q191 447 289 447Q380 447 437.50 391Q495 335 495 229M411 225Q411 423 252 423Q187 423 115 373Q113 344 113.50 331.50Q114 319 115.50 291.50Q117 264 117 252Q124 134 163 66Q202-2 272-2Q411-2 411 225Z"  horiz-adv-x="528" vert-adv-y="1000"  />

      
      <glyph glyph-name="uni37" unicode="&#x37;" d="M480 740L391 542Q357 470 310 332Q268 205 244 61Q231-15 183-15Q165-15 152-2Q139 11 139 39Q139 81 215 237L339 486L427 658L219 658Q184 658 162.50 656Q141 654 118 646.50Q95 639 82 622.50Q69 606 62 580L50 580L71 723L460 723L468 740L480 740Z"  horiz-adv-x="528" vert-adv-y="1000"  />

      
      <glyph glyph-name="uni38" unicode="&#x38;" d="M501 188Q501 109 438 47.50Q375-14 267-14Q149-14 88.50 40.50Q28 95 28 181Q28 324 193 385Q120 425 92 469Q64 513 64 565Q64 639 115 689Q166 739 267 739Q362 739 412.50 694Q463 649 463 583Q463 523 422 478Q381 433 312 413Q352 392 374.50 379Q397 366 425 345Q453 324 467 303.50Q481 283 491 253.50Q501 224 501 188M406 583Q406 652 369.50 689.50Q333 727 264 727Q122 727 122 591Q122 540 175.50 493.50Q229 447 291 422Q327 439 352.50 463.50Q378 488 388 512.50Q398 537 402 553.50Q406 570 406 583M434 163Q434 179 430 194.50Q426 210 421 222.50Q416 235 405 248.50Q394 262 386 270.50Q378 279 361 291Q344 303 335 309.50Q326 316 304.50 327.50Q283 339 274.50 343.50Q266 348 242 360Q218 372 211 375Q154 341 122 288.50Q90 236 90 179Q90 92 142.50 45Q195-2 270-2Q352-2 393 45.50Q434 93 434 163Z"  horiz-adv-x="528" vert-adv-y="1000"  />

      
      <glyph glyph-name="uni39" unicode="&#x39;" d="M33 496Q33 600 93.50 669.50Q154 739 256 739Q495 739 495 410Q495 330 477 255.50Q459 181 424 120Q389 59 332 22.50Q275-14 203-14Q135-14 98.50 10.50Q62 35 62 72Q62 97 75 109Q88 121 108 121Q156 121 156 74Q156 69 153.50 54Q151 39 151 35Q151 18 165.50 8Q180-2 203-2Q300-2 354.50 87Q409 176 413 335Q337 278 239 278Q148 278 90.50 334Q33 390 33 496M117 500Q117 302 276 302Q341 302 413 352Q415 381 414.50 393.50Q414 406 412.50 433.50Q411 461 411 473Q404 591 365 659Q326 727 256 727Q117 727 117 500Z"  horiz-adv-x="528" vert-adv-y="1000"  />

      
      <glyph glyph-name="uni3a" unicode="&#x3a;" d="M139 70.50Q139 70.50 146 63.25Q153 56 153 35Q153 14 139-0.50Q125-15 103-15Q82-15 67.50-0.50Q53 14 53 35Q53 56 68 70.50Q83 85 103 85Q125 85 139 70.50M139 490.50Q139 490.50 146 483.25Q153 476 153 455Q153 434 139 419.50Q125 405 103 405Q82 405 67.50 419.50Q53 434 53 455Q53 476 68 490.50Q83 505 103 505Q125 505 139 490.50Z"  horiz-adv-x="206" vert-adv-y="1000"  />

      
      <glyph glyph-name="uni3b" unicode="&#x3b;" d="M143 490.50Q143 490.50 150 483.25Q157 476 157 455Q157 434 143 419.50Q129 405 107 405Q86 405 71.50 419.50Q57 434 57 455Q57 476 72 490.50Q87 505 107 505Q129 505 143 490.50M162 33Q162-18 135-70Q108-122 66-160L57-151Q119-88 119-34Q119-21 113.50-11.50Q108-2 103.50 1.50Q99 5 84 15Q53 35 53 61Q53 80 67 93Q81 106 104 106Q129 106 145.50 87Q162 68 162 33Z"  horiz-adv-x="215" vert-adv-y="1000"  />

      
      <glyph glyph-name="uni3c" unicode="&#x3c;" d="M523 89L514 73L6 340L514 605L522 589L45 340L523 89Z"  horiz-adv-x="528" vert-adv-y="1000"  />

      
      <glyph glyph-name="uni3d" unicode="&#x3d;" d="M519 427L9 427L9 443L519 443L519 427M519 240L9 240L9 256L519 256L519 240Z"  horiz-adv-x="528" vert-adv-y="1000"  />

      
      <glyph glyph-name="uni3e" unicode="&#x3e;" d="M14 73L5 89L483 340L6 589L14 605L522 340L14 73Z"  horiz-adv-x="528" vert-adv-y="1000"  />

      
      <glyph glyph-name="uni3f" unicode="&#x3f;" d="M437 504Q437 465 423.50 431Q410 397 381 363.50Q352 330 323.50 305.50Q295 281 248 244Q230 230 222.50 223.50Q215 217 206.50 203Q198 189 198 174L198 139L186 139L186 264Q186 284 195.50 296.50Q205 309 232 329Q262 352 280 368Q298 384 323.50 413Q349 442 362 476Q375 510 375 549Q375 622 329.50 673Q284 724 199 724Q173 724 155 716.50Q137 709 130 697.50Q123 686 121 678.50Q119 671 119 664Q119 659 121 648.50Q123 638 123 632Q123 612 110.50 600Q98 588 76 588Q57 588 44 599.50Q31 611 31 634Q31 674 74.50 705Q118 736 197 736Q302 736 369.50 671.50Q437 607 437 504M228 70.50Q228 70.50 235 63.25Q242 56 242 35Q242 14 228-0.50Q214-15 192-15Q171-15 156.50-0.50Q142 14 142 35Q142 56 157 70.50Q172 85 192 85Q214 85 228 70.50Z"  horiz-adv-x="474" vert-adv-y="1000"  />

      
      <glyph glyph-name="uni40" unicode="&#x40;" d="M879 389Q879 317 855.50 256.50Q832 196 795.50 156.50Q759 117 713.50 89.50Q668 62 626 50Q584 38 548 38Q493 38 490 86Q487 122 511 185Q468 124 423 85Q368 39 313 39Q270 39 247 68Q224 97 224 150Q224 200 246 260Q268 320 306 371Q359 439 412.50 470.50Q466 502 539 502Q582 502 607 487L617 515L677 515L575 191Q553 118 553 91Q553 59 583 59Q613 59 649 71.50Q685 84 724 111.50Q763 139 794.50 176Q826 213 846.50 268Q867 323 867 385Q867 452 840 523Q813 594 748 645Q644 724 478 724Q334 724 219 647Q135 590 86 490Q37 390 37 263Q37 178 68.50 100Q100 22 152-32Q211-93 297-128Q383-163 472-163Q620-163 713.50-121Q807-79 873-5L882-13Q817-89 721.50-133Q626-177 474-177Q390-177 311-148Q232-119 167.50-65.50Q103-12 64 73Q25 158 25 261Q25 524 208 655Q325 736 479 736Q649 736 759 653Q879 558 879 389M547 294L597 453Q588 490 535 490Q492 490 442.50 445Q393 400 350 330Q319 275 299 216Q279 157 279 120Q279 51 321 51Q363 51 416 94Q460 133 494 184Q527 235 547 294Z"  horiz-adv-x="907" vert-adv-y="1000"  />

      
      <glyph glyph-name="uni41" unicode="&#x41;" d="M712 0L448 0L448 12L483 12Q532 12 532 43Q532 56 450 293L194 293L159 203Q115 87 115 60Q115 22 150 12L195 12L195 0L0 0L0 12L30 12Q59 33 96.50 104Q134 175 195 334L282 569L341 723L365 723L613 77Q625 45 642 28.50Q659 12 694 12L712 12L712 0M445 305L321 635L198 305L445 305Z"  horiz-adv-x="712" vert-adv-y="1000"  />

      
      <glyph glyph-name="uni42" unicode="&#x42;" d="M554 557Q554 597 538.50 627.50Q523 658 501.50 674Q480 690 452 700Q424 710 403 713Q382 716 363 716Q291 716 232 690L232 405L375 405Q389 405 405 406.50Q421 408 449.50 416.50Q478 425 499.50 439.50Q521 454 537.50 485Q554 516 554 557M579 214Q579 235 575 256Q571 277 556.50 303Q542 329 519 348Q496 367 453 380Q410 393 353 393L232 393L232 44Q258 27 300 17Q342 7 375 7Q408 7 440.50 16.50Q473 26 505.50 48Q538 70 558.50 113Q579 156 579 214M146 657Q146 711 81 711L46 711L46 723L213 723Q234 723 296.50 725.50Q359 728 392 728Q523 728 582 686Q641 644 641 574Q641 507 593.50 460Q546 413 461 398Q553 385 612.50 336Q672 287 672 210Q672 108 601 51.50Q530-5 411-5Q405-5 297-2Q227 0 190 0L46 0L46 12L81 12Q121 12 133.50 23Q146 34 146 66L146 657Z"  horiz-adv-x="727" vert-adv-y="1000"  />

      
      <glyph glyph-name="uni43" unicode="&#x43;" d="M669 0L657 0L659 38Q570-14 426-14Q248-14 153.50 87Q59 188 59 355Q59 408 70 459Q81 510 108.50 562Q136 614 177.50 652.50Q219 691 285 715Q351 739 433 739Q535 739 655 686L654 723L666 723L679 541L667 541L661 587Q629 649 568 688Q507 727 418 727Q351 727 298.50 697.50Q246 668 215 616Q184 564 168 499.50Q152 435 152 361Q152 183 231 90.50Q310-2 426-2Q505-2 573.50 32Q642 66 667 115L680 175L693 175L669 0Z"  horiz-adv-x="743" vert-adv-y="1000"  />

      
      <glyph glyph-name="uni44" unicode="&#x44;" d="M698 379Q698 420 690.50 462Q683 504 662.50 551Q642 598 610 633.50Q578 669 524 692.50Q470 716 400 716Q298 716 231 687L231 40Q291 7 397 7Q547 7 622.50 112.50Q698 218 698 379M146 657Q146 688 130.50 699.50Q115 711 80 711L46 711L46 723L201 723Q220 723 293.50 725.50Q367 728 400 728Q502 728 578 700Q654 672 693.50 634Q733 596 756.50 544.50Q780 493 785.50 457.50Q791 422 791 388Q791 357 787.50 325Q784 293 773 253.50Q762 214 744.50 178.50Q727 143 696.50 108.50Q666 74 626.50 49.50Q587 25 528.50 10Q470-5 400-5Q384-5 346-3.50Q308-2 301-2Q239 0 219 0L46 0L46 12L80 12Q120 12 133 23Q146 34 146 66L146 657Z"  horiz-adv-x="847" vert-adv-y="1000"  />

      
      <glyph glyph-name="uni45" unicode="&#x45;" d="M46 723L600 723L609 572L597 572L586 655Q566 681 496 696Q426 711 342 711Q273 711 252 700.50Q231 690 231 656L231 385L288 385Q344 385 383 389.50Q422 394 441 399.50Q460 405 470 415.50Q480 426 481.50 432Q483 438 483 449L483 472L495 472L495 286L483 286L483 311Q483 322 481.50 328Q480 334 470 344Q460 354 440.50 359.50Q421 365 382.50 369Q344 373 288 373L231 373L231 66Q231 34 247.50 23Q264 12 295 12Q444 12 524 32Q599 53 620 109L631 154L643 154L614 0L46 0L46 12L81 12Q121 12 133.50 23Q146 34 146 66L146 657Q146 690 129.50 700.50Q113 711 81 711L46 711L46 723Z"  horiz-adv-x="663" vert-adv-y="1000"  />

      
      <glyph glyph-name="uni46" unicode="&#x46;" d="M343 711Q274 711 252.50 700.50Q231 690 231 656L231 385L289 385Q345 385 384 389.50Q423 394 442 399.50Q461 405 471 415Q481 425 482.50 431Q484 437 484 448L484 472L496 472L496 286L484 286L484 311Q484 322 482.50 328Q481 334 471 344Q461 354 441.50 359.50Q422 365 383.50 369Q345 373 289 373L231 373L231 66Q231 35 242.50 23.50Q254 12 295 12L333 12L333 0L46 0L46 12L81 12Q121 12 133.50 23Q146 34 146 66L146 657Q146 690 130.50 700.50Q115 711 81 711L46 711L46 723L600 723L610 572L598 572L588 655Q568 681 497.50 696Q427 711 343 711Z"  horiz-adv-x="645" vert-adv-y="1000"  />

      
      <glyph glyph-name="uni47" unicode="&#x47;" d="M815 335L787 335Q771 335 762.50 334Q754 333 743 328.50Q732 324 727 313Q722 302 722 285L722 93Q670 45 590.50 15.50Q511-14 432-14Q335-14 260.50 17.50Q186 49 143.50 102.50Q101 156 80 220.50Q59 285 59 357Q59 522 166.50 630.50Q274 739 439 739Q543 739 666 686Q666 693 665.50 705Q665 717 665 723L677 723Q690 542 690 541L678 541L672 587Q640 648 579 687.50Q518 727 435 727Q310 727 231 628Q152 529 152 356Q152 259 178 186.50Q204 114 246.50 74.50Q289 35 335.50 16.50Q382-2 431-2Q491-2 534.50 14Q578 30 598.50 54.50Q619 79 628 100Q637 121 637 139L637 285Q637 315 621.50 325Q606 335 573 335L549 335L549 347L815 347L815 335Z"  horiz-adv-x="820" vert-adv-y="1000"  />

      
      <glyph glyph-name="uni48" unicode="&#x48;" d="M816 0L531 0L531 12L565 12Q604 12 617.50 23Q631 34 631 66L631 368L231 368L231 66Q231 34 244.50 23Q258 12 294 12L331 12L331 0L46 0L46 12L80 12Q119 12 132.50 23Q146 34 146 66L146 657Q146 687 132 699Q118 711 80 711L46 711L46 723L331 723L331 711L294 711Q258 711 244.50 700Q231 689 231 657L231 380L631 380L631 657Q631 689 617.50 700Q604 711 565 711L531 711L531 723L816 723L816 711L779 711Q743 711 729.50 700Q716 689 716 657L716 66Q716 34 729.50 23Q743 12 779 12L816 12L816 0Z"  horiz-adv-x="862" vert-adv-y="1000"  />

      
      <glyph glyph-name="uni49" unicode="&#x49;" d="M331 0L46 0L46 12L80 12Q119 12 132.50 24Q146 36 146 66L146 657Q146 689 132 700Q118 711 80 711L46 711L46 723L331 723L331 711L294 711Q257 711 244 699.50Q231 688 231 657L231 66Q231 36 243.50 24Q256 12 294 12L331 12L331 0Z"  horiz-adv-x="377" vert-adv-y="1000"  />

      
      <glyph glyph-name="uni4a" unicode="&#x4a;" d="M447 711L413 711Q374 711 360.50 698.50Q347 686 347 657L347 305Q347 136 289 61Q231-14 142-14Q76-14 43 13Q10 40 10 75Q10 96 22.50 110.50Q35 125 58 125Q106 125 106 78Q106 71 102.50 58Q99 45 99 39Q99-2 151-2Q177-2 196 8Q215 18 227 39.50Q239 61 246.50 83.50Q254 106 257 143.50Q260 181 261 211Q262 241 262 287L262 657Q262 687 248.50 699Q235 711 196 711L158 711L158 723L447 723L447 711Z"  horiz-adv-x="477" vert-adv-y="1000"  />

      
      <glyph glyph-name="uni4b" unicode="&#x4b;" d="M772 0L599 0L259 380L422 532Q495 600 524.50 633.50Q554 667 554 684Q554 711 510 711L474 711L474 723L724 723L724 711L698 711Q645 711 540 622L327 425L649 68Q665 50 675.50 41Q686 32 712 21.50Q738 11 772 10L772 0M330 0L46 0L46 12L80 12Q119 12 132 24.50Q145 37 145 66L145 657Q145 689 132 700Q119 711 80 711L46 711L46 723L330 723L330 711L293 711Q257 711 243.50 699Q230 687 230 657L230 66Q230 37 244 24.50Q258 12 293 12L330 12L330 0Z"  horiz-adv-x="777" vert-adv-y="1000"  />

      
      <glyph glyph-name="uni4c" unicode="&#x4c;" d="M342 12Q453 12 522 32Q594 53 618 111L634 171L647 171L615 0L46 0L46 12L81 12Q146 12 146 66L146 657Q146 689 132 700Q118 711 81 711L47 711L47 723L332 723L332 711L294 711Q256 711 243.50 700Q231 689 231 657L231 66Q231 35 251.50 23.50Q272 12 342 12Z"  horiz-adv-x="647" vert-adv-y="1000"  />

      
      <glyph glyph-name="uni4d" unicode="&#x4d;" d="M952 0L667 0L667 12L701 12Q740 12 753.50 23Q767 34 767 66L767 665L473 118L452 118L155 669L155 252Q155 64 188 12L250 12L250 0L46 0L46 12L107 12Q141 64 141 283L141 662Q141 711 98 711L46 711L46 723L220 723L501 203L780 723L952 723L952 711L917 711Q899 711 890.50 710Q882 709 871.50 704.50Q861 700 856.50 689Q852 678 852 659L852 66Q852 35 864 23.50Q876 12 916 12L952 12L952 0Z"  horiz-adv-x="998" vert-adv-y="1000"  />

      
      <glyph glyph-name="uni4e" unicode="&#x4e;" d="M751 711L690 711Q656 657 656 469L656-14L643-14L155 592L155 245Q155 65 189 12L250 12L250 0L46 0L46 12L107 12Q138 61 141 245L141 609Q131 622 98.50 662.50Q66 703 51 723L157 723L642 116L642 499Q642 564 633 627Q624 690 609 711L547 711L547 723L751 723L751 711Z"  horiz-adv-x="797" vert-adv-y="1000"  />

      
      <glyph glyph-name="uni4f" unicode="&#x4f;" d="M809 363Q809 315 798 266.50Q787 218 759.50 166.50Q732 115 690.50 75.50Q649 36 582.50 11Q516-14 433-14Q351-14 284.50 11Q218 36 177 75.50Q136 115 108.50 166Q81 217 70 266Q59 315 59 363Q59 413 71 463.50Q83 514 111.50 564Q140 614 182 652.50Q224 691 289 715Q354 739 433 739Q533 739 608.50 705Q684 671 726 614.50Q768 558 788.50 494.50Q809 431 809 363M716 363Q716 524 641.50 625.50Q567 727 433 727Q299 727 225.50 629Q152 531 152 363Q152 267 182.50 186Q213 105 278 51.50Q343-2 433-2Q502-2 557.50 28.50Q613 59 646.50 111Q680 163 698 227.50Q716 292 716 363Z"  horiz-adv-x="868" vert-adv-y="1000"  />

      
      <glyph glyph-name="uni50" unicode="&#x50;" d="M635 520Q635 425 558.50 357.50Q482 290 351 290Q281 290 231 302L231 66Q231 34 243 23Q255 12 294 12L331 12L331 0L46 0L46 12L81 12Q120 12 133 23.50Q146 35 146 66L146 657Q146 689 133 700Q120 711 81 711L46 711L46 723L155 723Q185 723 257 728.50Q329 734 361 734Q437 734 492.50 715Q548 696 578 664Q608 632 621.50 596Q635 560 635 520M542 520Q542 618 490.50 670Q439 722 345 722Q286 722 231 694L231 313Q277 302 347 302Q436 302 489 359Q542 416 542 520Z"  horiz-adv-x="675" vert-adv-y="1000"  />

      
      <glyph glyph-name="uni51" unicode="&#x51;" d="M809 363Q809 316 798 268Q787 220 760.50 169Q734 118 694.50 79Q655 40 591 14Q527-12 448-14Q373-66 313-88L335-88Q385-88 432.50-108.50Q480-129 573-183Q625-213 679-213Q710-213 749-193Q788-173 823-128L832-136Q806-172 776-194.50Q746-217 714-226Q682-235 662-237.50Q642-240 615-240Q502-240 365-152Q291-104 256-105L217-105L217-93Q281-85 325.50-67.50Q370-50 424-14Q344-13 279.50 13Q215 39 174.50 78Q134 117 107.50 168Q81 219 70 267.50Q59 316 59 363Q59 413 71 463.50Q83 514 112 564Q141 614 182.50 652.50Q224 691 289 715Q354 739 433 739Q533 739 608.50 705Q684 671 726 614.50Q768 558 788.50 494.50Q809 431 809 363M716 363Q716 524 641.50 625.50Q567 727 433 727Q299 727 225.50 629Q152 531 152 363Q152 267 182.50 186Q213 105 278 51.50Q343-2 433-2Q502-2 557.50 28.50Q613 59 646.50 111Q680 163 698 227.50Q716 292 716 363Z"  horiz-adv-x="891" vert-adv-y="1000"  />

      
      <glyph glyph-name="uni52" unicode="&#x52;" d="M692 10Q710 10 720 29Q730 48 731 71L743 71Q740-14 657-14Q598-14 557 37.50Q516 89 470 196Q434 279 372 327.50Q310 376 230 372L230 66Q230 38 245 25Q260 12 293 12L330 12L330 0L46 0L46 12L80 12Q115 12 130 25Q145 38 145 66L145 657Q145 691 131 701Q117 711 80 711L46 711L46 723L159 723Q194 722 268.50 728Q343 734 374 734Q648 734 648 552Q648 462 569 410.50Q490 359 371 358Q510 315 582 185Q598 158 637 71Q645 52 650 43Q655 34 667 22Q679 10 692 10M555 547Q555 633 504 677.50Q453 722 363 722Q288 722 230 695L230 384L283 379Q337 373 365 373Q450 373 502.50 421.50Q555 470 555 547Z"  horiz-adv-x="748" vert-adv-y="1000"  />

      
      <glyph glyph-name="uni53" unicode="&#x53;" d="M538 181Q538 99 474.50 42.50Q411-14 300-14Q182-14 70 41Q70 34 70.50 20Q71 6 71 0L59 0L44 194L56 194L61 151Q90 89 155.50 43.50Q221-2 299-2Q384-2 424.50 38Q465 78 465 137Q465 247 276 343Q226 370 196.50 388.50Q167 407 134 435Q101 463 85.50 496Q70 529 70 568Q70 643 121.50 691Q173 739 289 739Q393 739 484 688L484 723L496 723L506 548L494 548L491 586Q475 643 427.50 685Q380 727 292 727Q142 727 142 616Q142 581 156 552Q170 523 198.50 498.50Q227 474 254.50 457Q282 440 326 418Q374 392 404 373Q434 354 469 324.50Q504 295 521 259Q538 223 538 181Z"  horiz-adv-x="590" vert-adv-y="1000"  />

      
      <glyph glyph-name="uni54" unicode="&#x54;" d="M19 723L646 723L657 562L645 562L636 639Q594 711 433 711Q375 711 375 678L375 66Q375 35 387.50 23.50Q400 12 442 12L475 12L475 0L190 0L190 12L225 12Q264 12 277 23.50Q290 35 290 66L290 677Q290 693 279 702Q268 711 233 711Q151 711 103 696.50Q55 682 32 639L32 640L22 562L10 562L19 723Z"  horiz-adv-x="667" vert-adv-y="1000"  />

      
      <glyph glyph-name="uni55" unicode="&#x55;" d="M779 711L720 711Q691 660 686 489L686 316Q686 243 673 186Q660 129 630.50 83.50Q601 38 548 14Q495-10 420-10Q360-10 312 2Q264 14 234 30Q204 46 183 73Q162 100 152 120.50Q142 141 136.50 172Q131 203 130.50 216.50Q130 230 130 252L130 657Q130 711 63 711L30 711L30 723L315 723L315 711L278 711Q215 711 215 657L215 235Q215 181 230 138.50Q245 96 267.50 71.50Q290 47 319.50 31.50Q349 16 373.50 11Q398 6 421 6Q480 6 524.50 22.50Q569 39 596.50 66Q624 93 641.50 133.50Q659 174 665.50 218Q672 262 672 316L672 498Q672 581 661 638.50Q650 696 639 711L578 711L578 723L779 723L779 711Z"  horiz-adv-x="809" vert-adv-y="1000"  />

      
      <glyph glyph-name="uni56" unicode="&#x56;" d="M759 711L725 711Q692 685 645 583Q633 558 614 512.50Q595 467 535.50 325Q476 183 392-14L378-14L93 650Q85 670 79 679Q73 688 53 699Q33 710 0 711L0 723L256 723L256 711L219 711Q176 711 176 677Q176 669 186 644L420 90Q647 624 647 672Q647 693 636 702Q625 711 610 711L562 711L562 723L759 723L759 711Z"  horiz-adv-x="759" vert-adv-y="1000"  />

      
      <glyph glyph-name="uni57" unicode="&#x57;" d="M1104 711L1068 711Q1038 685 1007.50 623Q977 561 928 429L762-14L749-14L568 480L376-14L362-14Q320 102 229.50 328.50Q139 555 102 654Q81 711 17 711L0 711L0 723L276 723L276 711L232 711Q185 711 185 681Q185 669 193 650L405 100L560 501L508 654Q501 673 491.50 685.50Q482 698 469.50 703Q457 708 448 709.50Q439 711 427 711L401 711L401 723L687 723L687 711L635 711Q591 711 591 680Q591 668 600 643L787 101L917 446Q986 628 986 677Q986 711 942 711L905 711L905 723L1104 723L1104 711Z"  horiz-adv-x="1104" vert-adv-y="1000"  />

      
      <glyph glyph-name="uni58" unicode="&#x58;" d="M766 0L470 0L470 12L509 12Q556 12 556 36Q556 45 540 70L365 332Q364 332 315 272Q156 77 156 40Q156 12 189 12L238 12L238 0L15 0L15 12L53 12Q108 46 222 179L356 345L171 621Q137 671 111.50 690Q86 709 39 711L39 723L322 723L322 711L266 711Q239 711 239 688Q239 675 257 649L413 411Q436 440 493 519Q550 598 571 633Q593 671 593 685Q593 701 581 706Q569 711 544 711L504 711L504 723L732 723L732 711L702 711Q635 686 552 575L421 399L614 113Q681 12 754 12L766 12L766 0Z"  horiz-adv-x="781" vert-adv-y="1000"  />

      
      <glyph glyph-name="uni59" unicode="&#x59;" d="M726 711L695 711Q648 687 608 618L512 459L415 299L415 66Q415 38 430.50 25Q446 12 481 12L515 12L515 0L231 0L231 12L265 12Q300 12 315 25.50Q330 39 330 66L330 291L117 642Q108 657 102 665Q96 673 82.50 685Q69 697 48.50 703.50Q28 710 0 711L0 723L277 723L277 711L237 711Q209 711 201.50 695Q194 679 209 656L409 316L498 465Q553 558 565 582Q601 654 601 679Q601 711 554 711L525 711L525 723L726 723L726 711Z"  horiz-adv-x="726" vert-adv-y="1000"  />

      
      <glyph glyph-name="uni5a" unicode="&#x5a;" d="M144 12L227 12Q399 12 483 33Q552 51 581 110L598 171L610 171L592 70L578 0L46 0L46 15L484 711L365 711Q233 711 181.50 695.50Q130 680 103 640L94 562L82 562L91 723L584 723L584 705L144 12Z"  horiz-adv-x="656" vert-adv-y="1000"  />

      
      <glyph glyph-name="uni5b" unicode="&#x5b;" d="M303-164L78-164L78 755L303 755L303 743L219 743Q200 743 187.50 738Q175 733 170 724Q165 715 164 709Q163 703 163 693L163-99Q163-113 165-122.50Q167-132 180.50-142Q194-152 219-152L303-152L303-164Z"  horiz-adv-x="388" vert-adv-y="1000"  />

      
      <glyph glyph-name="uni5c" unicode="&#x5c;" d="M573-93L-20 790L-5 800L588-83L573-93Z"  horiz-adv-x="568" vert-adv-y="1000"  />

      
      <glyph glyph-name="uni5d" unicode="&#x5d;" d="M310-164L85-164L85-152L169-152Q194-152 207.50-142Q221-132 223-122.50Q225-113 225-99L225 693Q225 703 224 709Q223 715 218 724Q213 733 200.50 738Q188 743 169 743L85 743L85 755L310 755L310-164Z"  horiz-adv-x="388" vert-adv-y="1000"  />

      
      <glyph glyph-name="uni5e" unicode="&#x5e;" d="M466 567L438 567L263 703L90 567L61 567L263 727L466 567Z"  horiz-adv-x="528" vert-adv-y="1000"  />

      
      <glyph glyph-name="uni5f" unicode="&#x5f;" d="M596-201L-11-201L-11-185L596-185L596-201Z"  horiz-adv-x="585" vert-adv-y="1000"  />

      
      <glyph glyph-name="uni60" unicode="&#x60;" d="M22 698Q22 726 48 726Q70 726 104 693L237 562L213 562Q112 621 64 652Q22 679 22 698Z"  horiz-adv-x="328" vert-adv-y="1000"  />

      
      <glyph glyph-name="uni61" unicode="&#x61;" d="M429 13Q442 13 452.50 26.50Q463 40 467 65L479 65Q468-11 405-11Q329-11 329 92Q230-11 139-11Q82-11 52 17.50Q22 46 22 91Q22 126 41.50 155.50Q61 185 90.50 205Q120 225 159.50 240.50Q199 256 233.50 264.50Q268 273 303 278L329 282L329 333Q329 409 302 445Q275 481 204 481Q172 481 147 468.50Q122 456 122 432Q122 423 126.50 412Q131 401 131 392Q131 354 89 354Q72 354 61.50 365.50Q51 377 51 396Q51 435 96.50 464Q142 493 210 493Q398 493 398 333L398 68Q398 13 429 13M329 108L329 270Q279 261 242 249Q205 237 171.50 218Q138 199 120.50 170.50Q103 142 103 104Q103 61 125 41Q147 21 182 21Q216 21 258.50 48.50Q301 76 329 108Z"  horiz-adv-x="484" vert-adv-y="1000"  />

      
      <glyph glyph-name="uni62" unicode="&#x62;" d="M543 256Q543 188 521 135Q499 82 462.50 51Q426 20 382.50 4.50Q339-11 291-11Q202-11 138 44L105-11L95-11L95 695Q95 721 82.50 728Q70 735 15 736L15 748Q94 753 164 786L164 444Q229 493 309 493Q410 493 476.50 431.50Q543 370 543 256M462 246Q462 339 416 404Q370 469 279 469Q212 469 164 432L164 111Q164 56 203 28.50Q242 1 293 1Q362 1 412 64.50Q462 128 462 246Z"  horiz-adv-x="568" vert-adv-y="1000"  />

      
      <glyph glyph-name="uni63" unicode="&#x63;" d="M269 13Q318 13 361 42Q404 71 429 128L440 123Q382-11 252-11Q155-11 90 55.50Q25 122 25 236Q25 343 87 418Q149 493 266 493Q335 493 376 468.50Q417 444 417 408Q417 384 405 371.50Q393 359 375 359Q333 359 333 403Q333 408 334.50 419.50Q336 431 336 438Q336 456 316.50 468.50Q297 481 262 481Q194 481 150 424Q106 367 106 236Q106 125 151.50 69Q197 13 269 13Z"  horiz-adv-x="450" vert-adv-y="1000"  />

      
      <glyph glyph-name="uni64" unicode="&#x64;" d="M553 0L404 0L404 52Q339-11 253-11Q218-11 182 0.50Q146 12 109 38Q72 64 48.50 115.50Q25 167 25 236Q25 350 98 420.50Q171 491 278 493Q339 493 404 471L404 696Q404 721 391 728Q378 735 324 736L324 748Q407 752 473 786L473 55Q473 32 483 22Q493 12 521 12L553 12L553 0M404 68L404 419Q389 450 355.50 465.50Q322 481 283 481Q197 481 151.50 420Q106 359 106 244Q106 176 122.50 127.50Q139 79 166.50 55.50Q194 32 222 22.50Q250 13 282 13Q349 13 404 68Z"  horiz-adv-x="568" vert-adv-y="1000"  />

      
      <glyph glyph-name="uni65" unicode="&#x65;" d="M248 493Q340 493 389 430Q438 367 440 281L106 281Q106 198 120 141.50Q134 85 159 59Q184 33 208.50 23Q233 13 263 13Q362 13 425 112L435 105Q368-11 244-11Q207-11 171.50 1.50Q136 14 101.50 40.50Q67 67 46 118Q25 169 25 238Q25 355 84.50 424Q144 493 248 493M106 293L363 293Q363 373 331.50 427Q300 481 241 481Q121 481 106 293Z"  horiz-adv-x="465" vert-adv-y="1000"  />

      
      <glyph glyph-name="uni66" unicode="&#x66;" d="M347 726Q347 684 308 684Q268 684 265 730Q264 740 263 745.50Q262 751 256 756.50Q250 762 239 762Q202 762 183 685.50Q164 609 164 521L164 481L300 481L300 465L164 465L164 55Q164 31 173.50 21.50Q183 12 212 12L244 12L244 0L15 0L15 12L48 12Q77 12 86 21Q95 30 95 55L95 465L15 465L15 481L95 481Q95 592 124 666Q149 721 189.50 749.50Q230 778 278 778Q308 778 327.50 763Q347 748 347 726Z"  horiz-adv-x="337" vert-adv-y="1000"  />

      
      <glyph glyph-name="uni67" unicode="&#x67;" d="M526 534Q526 517 515 504.50Q504 492 487 492Q458 492 448 517Q442 532 435 532Q418 532 385 467Q482 421 482 334Q482 287 460 252Q438 217 403 199Q368 181 332.50 173Q297 165 261 165L242 165Q199 165 175 161Q134 154 134 123Q134 105 152 91.50Q170 78 187.50 73Q205 68 234 63L321 47Q510 12 510-88Q510-149 454-190.50Q398-232 261-232Q186-232 133.50-220Q81-208 56-187.50Q31-167 20.50-147Q10-127 10-104Q10-6 153 22Q87 44 87 98Q87 129 109 150Q131 171 175 175Q114 194 79.50 236.50Q45 279 45 334Q45 408 104 450.50Q163 493 263 493Q322 493 372 472Q382 492 389.50 505.50Q397 519 411 537.50Q425 556 442.50 566Q460 576 479 576Q500 576 513 564Q526 552 526 534M401 332Q401 481 259 481Q207 481 175.50 454.50Q144 428 135 396Q126 364 126 324Q126 306 130.50 285.50Q135 265 147.50 238.50Q160 212 189 194.50Q218 177 260 177Q329 177 365 222Q401 267 401 332M454-111Q454-80 422-52Q390-24 320-11Q222 7 174 15Q127 4 94.50-26Q62-56 62-97Q62-220 265-220Q358-220 406-190Q454-160 454-111Z"  horiz-adv-x="526" vert-adv-y="1000"  />

      
      <glyph glyph-name="uni68" unicode="&#x68;" d="M552 0L323 0L323 12L355 12Q384 12 393.50 21.50Q403 31 403 55L403 324Q403 373 392.50 404.50Q382 436 362.50 449Q343 462 327 465.50Q311 469 288 469Q236 469 164 424L164 55Q164 29 173 20.50Q182 12 211 12L244 12L244 0L15 0L15 12L46 12Q75 12 85 20.50Q95 29 95 55L95 697Q95 721 81.50 728Q68 735 15 736L15 748Q99 754 164 786L164 438Q243 493 317 493Q359 493 389 481Q419 469 435 452Q451 435 459.50 407.50Q468 380 470 359Q472 338 472 308L472 55Q472 31 481.50 21.50Q491 12 519 12L552 12L552 0Z"  horiz-adv-x="567" vert-adv-y="1000"  />

      
      <glyph glyph-name="uni69" unicode="&#x69;" d="M244 0L15 0L15 12L47 12Q76 12 85.50 21.50Q95 31 95 55L95 404Q95 430 82 436.50Q69 443 15 444L15 456Q92 461 164 495L164 55Q164 31 173.50 21.50Q183 12 211 12L244 12L244 0M179 637Q179 617 165 602Q151 587 129 587Q107 587 93 602Q79 617 79 637Q79 658 93 672.50Q107 687 129 687Q152 687 165.50 672.50Q179 658 179 637Z"  horiz-adv-x="259" vert-adv-y="1000"  />

      
      <glyph glyph-name="uni6a" unicode="&#x6a;" d="M109 404Q109 430 96 436.50Q83 443 29 444L29 456Q116 464 178 495L178-7Q178-122 125.50-177Q73-232 2-232Q-34-232-57-213Q-80-194-80-167Q-80-149-69-137Q-58-125-39-125Q-21-125-11-134.50Q-1-144-1-160Q-1-164-3-174.50Q-5-185-5-188Q-5-220 22-220Q109-220 109-48L109 404M192 637Q192 617 178 602Q164 587 142 587Q120 587 106 602Q92 617 92 637Q92 658 106 672.50Q120 687 142 687Q165 687 178.50 672.50Q192 658 192 637Z"  horiz-adv-x="280" vert-adv-y="1000"  />

      
      <glyph glyph-name="uni6b" unicode="&#x6b;" d="M95 697Q95 720 81.50 727.50Q68 735 15 736L15 748Q99 753 164 786L164 175Q313 341 339 378Q377 431 377 444Q377 458 364.50 463.50Q352 469 324 469L309 469L309 481L497 481L497 469L480 469Q446 469 400 418L285 292L470 52Q503 12 546 12L553 12L553 0L318 0L318 12L350 12Q393 12 393 35Q393 47 383 60L243 245L164 159L164 55Q164 29 173 20.50Q182 12 211 12L244 12L244 0L15 0L15 12L47 12Q77 12 86 20.50Q95 29 95 55L95 697Z"  horiz-adv-x="553" vert-adv-y="1000"  />

      
      <glyph glyph-name="uni6c" unicode="&#x6c;" d="M95 697Q95 720 81.50 727.50Q68 735 15 736L15 748Q92 753 164 786L164 55Q164 31 173 21.50Q182 12 210 12L244 12L244 0L15 0L15 12L47 12Q73 12 84 22Q95 32 95 55L95 697Z"  horiz-adv-x="259" vert-adv-y="1000"  />

      
      <glyph glyph-name="uni6d" unicode="&#x6d;" d="M305 493Q393 493 430 435Q515 493 590 493Q666 493 705 452Q723 434 732 405Q741 376 741.50 361.50Q742 347 742 317L742 55Q742 31 751 21.50Q760 12 790 12L822 12L822 0L603 0L603 12L626 12Q654 12 663.50 22Q673 32 673 55L673 319Q676 390 652 429.50Q628 469 559 469Q504 469 436 423Q453 389 453 335L453 55Q453 31 462 21.50Q471 12 500 12L523 12L523 0L314 0L314 12L336 12Q364 12 374 22Q384 32 384 55L384 335Q384 410 355.50 439.50Q327 469 274 469Q220 469 164 431L164 55Q164 31 172.50 21.50Q181 12 211 12L234 12L234 0L15 0L15 12L47 12Q75 12 85 21.50Q95 31 95 55L95 404Q95 430 82 436.50Q69 443 15 444L15 456Q95 463 164 495L164 445Q228 493 305 493Z"  horiz-adv-x="836" vert-adv-y="1000"  />

      
      <glyph glyph-name="uni6e" unicode="&#x6e;" d="M552 0L323 0L323 12L355 12Q384 12 393.50 21.50Q403 31 403 55L403 324Q403 373 392.50 404.50Q382 436 362.50 449Q343 462 327 465.50Q311 469 288 469Q236 469 164 424L164 55Q164 29 173 20.50Q182 12 211 12L244 12L244 0L15 0L15 12L46 12Q75 12 85 20.50Q95 29 95 55L95 404Q95 430 82 436.50Q69 443 15 444L15 456Q91 461 164 495L164 438Q243 493 317 493Q359 493 389 481Q419 469 435 452Q451 435 459.50 407.50Q468 380 470 359Q472 338 472 308L472 55Q472 31 481.50 21.50Q491 12 519 12L552 12L552 0Z"  horiz-adv-x="567" vert-adv-y="1000"  />

      
      <glyph glyph-name="uni6f" unicode="&#x6f;" d="M503 240Q503 128 436 58.50Q369-11 264-11Q160-11 92.50 58Q25 127 25 240Q25 363 91 428Q157 493 264 493Q373 493 438 430Q503 367 503 240M422 240Q422 368 377 424.50Q332 481 264 481Q196 481 151 424.50Q106 368 106 240Q106 113 151 57Q196 1 264 1Q332 1 377 57Q422 113 422 240Z"  horiz-adv-x="528" vert-adv-y="1000"  />

      
      <glyph glyph-name="uni70" unicode="&#x70;" d="M454 239Q454 469 288 469Q233 469 164 416L164 38Q206 13 276 13Q354 13 404 72.50Q454 132 454 239M95 404Q95 430 82 436.50Q69 443 15 444L15 456Q84 460 164 495L164 430Q234 493 312 493Q352 493 389 480.50Q426 468 460 440.50Q494 413 514.50 362Q535 311 535 242Q535 134 472 62Q409-10 299-11Q221-11 164 25L164-167Q164-193 172.50-201.50Q181-210 211-210L244-210L244-222L15-222L15-210L46-210Q76-210 85.50-201.50Q95-193 95-167L95 404Z"  horiz-adv-x="560" vert-adv-y="1000"  />

      
      <glyph glyph-name="uni71" unicode="&#x71;" d="M545-222L316-222L316-210L348-210Q377-210 386.50-201.50Q396-193 396-167L396 24Q331-11 260-11Q228-11 197.50-5Q167 1 135 18Q103 35 79.50 61Q56 87 40.50 131Q25 175 25 231Q25 355 94.50 424Q164 493 269 493Q321 493 353.50 481Q386 469 420 437Q424 443 436 463Q448 483 454 493L465 493L465-167Q465-193 473.50-201.50Q482-210 512-210L545-210L545-222M396 38L396 370Q396 481 269 481Q187 481 146.50 413Q106 345 106 238Q106 122 159 67.50Q212 13 291 13Q352 13 396 38Z"  horiz-adv-x="560" vert-adv-y="1000"  />

      
      <glyph glyph-name="uni72" unicode="&#x72;" d="M95 404Q95 430 82 436.50Q69 443 15 444L15 456Q91 462 164 495L164 394Q203 493 292 493Q328 493 347.50 475Q367 457 367 433Q367 411 355 399Q343 387 326 387Q311 387 300 395.50Q289 404 289 418Q289 422 290 430Q291 438 291 441Q291 469 256 469Q222 469 193 421.50Q164 374 164 327L164 55Q164 30 173.50 21Q183 12 213 12L244 12L244 0L15 0L15 12L47 12Q76 12 85.50 21Q95 30 95 55L95 404Z"  horiz-adv-x="387" vert-adv-y="1000"  />

      
      <glyph glyph-name="uni73" unicode="&#x73;" d="M375 127Q375 66 333 27.50Q291-11 210-11Q138-11 57 28L57 0L45 0L40 130L52 130Q67 75 115 38Q163 1 215 1Q259 1 286.50 30Q314 59 314 98Q314 133 290.50 156Q267 179 228 200L158 239Q103 270 79.50 298.50Q56 327 56 368Q56 432 100 462.50Q144 493 199 493Q262 493 334 455L334 481L346 481L351 350L339 350L338 372Q293 481 201 481Q162 481 141 458Q120 435 120 404Q120 355 165 326Q190 311 236 289Q304 255 339.50 218.50Q375 182 375 127Z"  horiz-adv-x="415" vert-adv-y="1000"  />

      
      <glyph glyph-name="uni74" unicode="&#x74;" d="M263 13Q293 13 325.50 35Q358 57 381 110L392 105Q375 57 337.50 23Q300-11 245-11Q177-11 141 27Q105 65 105 135L105 469L5 469L5 481L35 481Q80 489 109.50 525.50Q139 562 149.50 606Q160 650 161 700L174 700L174 481L201 481Q294 481 339 491L344 469L174 469L174 120Q174 63 199 38Q224 13 263 13Z"  horiz-adv-x="382" vert-adv-y="1000"  />

      
      <glyph glyph-name="uni75" unicode="&#x75;" d="M549 0L400 0L400 54Q319-11 237-11Q196-11 166.50 2.50Q137 16 122.50 39Q108 62 101.50 86Q95 110 95 138L95 404Q95 430 82.50 436.50Q70 443 15 444L15 456Q95 461 164 495L164 136Q164 95 174.50 68.50Q185 42 204 31Q223 20 238.50 16.50Q254 13 274 13Q331 13 400 68L400 404Q400 430 387.50 436.50Q375 443 320 444L320 456Q394 462 469 495L469 55Q469 32 479 22Q489 12 517 12L549 12L549 0Z"  horiz-adv-x="564" vert-adv-y="1000"  />

      
      <glyph glyph-name="uni76" unicode="&#x76;" d="M524 469L491 469Q468 448 447.50 410Q427 372 387 272Q387 271 272-11L262-11Q256 4 169 206L77 422Q57 469 18 469L0 469L0 481L225 481L225 469L195 469Q151 469 151 437Q151 429 163 398L296 80Q300 90 306 106Q312 122 329.50 165.50Q347 209 369 266Q420 393 420 432Q420 453 409.50 461Q399 469 373 469L355 469L355 481L524 481L524 469Z"  horiz-adv-x="524" vert-adv-y="1000"  />

      
      <glyph glyph-name="uni77" unicode="&#x77;" d="M777 469L745 469Q706 435 636 257L540-11L525-11L396 319L267-11L253-11L69 430Q54 469 10 469L0 469L0 481L191 481L191 469L182 469Q139 469 139 442Q139 438 143 424L287 75Q301 114 318 158Q335 202 356.50 256Q378 310 389 339L354 429Q344 454 329.50 461.50Q315 469 292 469L281 469L281 481L473 481L473 469L463 469Q437 469 428 464Q419 459 419 447Q419 437 558 76L628 274Q674 403 674 442Q674 469 637 469L611 469L611 481L777 481L777 469Z"  horiz-adv-x="777" vert-adv-y="1000"  />

      
      <glyph glyph-name="uni78" unicode="&#x78;" d="M545 0L299 0L299 12L337 12Q375 12 375 38Q375 50 364 66L255 220Q249 212 234.50 194.50Q220 177 214 168L161 98Q135 60 135 43Q135 12 188 12L203 12L203 0L5 0L5 12L28 12Q64 12 122 78L157 119Q159 121 248 230L111 414Q98 433 88.50 442.50Q79 452 61.50 460Q44 468 19 469L19 481L245 481L245 469L205 469Q178 469 178 451Q178 443 189 425L291 280Q402 415 402 445Q402 469 370 469L340 469L340 481L516 481L516 469L503 469Q480 469 455 449Q430 429 389 381L298 271L453 57Q481 15 545 12L545 0Z"  horiz-adv-x="550" vert-adv-y="1000"  />

      
      <glyph glyph-name="uni79" unicode="&#x79;" d="M535 469L525 469Q492 469 474 435Q464 415 437 348L363 148L281-57Q242-153 212-189Q174-232 122-232Q86-232 64-214.50Q42-197 42-168Q42-148 54.50-136.50Q67-125 84-125Q101-125 112.50-134.50Q124-144 124-162L123-184Q122-196 129.50-202Q137-208 152-208Q177-208 201-179Q247-118 280-17L80 427Q73 441 68.50 447.50Q64 454 49.50 461.50Q35 469 14 469L0 469L0 481L219 481L219 469L187 469Q153 469 153 443Q153 435 159 421L317 63Q438 391 438 426Q438 469 401 469L373 469L373 481L535 481L535 469Z"  horiz-adv-x="535" vert-adv-y="1000"  />

      
      <glyph glyph-name="uni7a" unicode="&#x7a;" d="M397 118L388 0L10 0L10 15L317 469Q200 469 136.50 457.50Q73 446 53 410Q52 402 50 385.50Q48 369 48 362L36 362L44 481L396 481L396 468L92 12L155 12Q239 12 305 28.50Q371 45 381 84L385 118L397 118Z"  horiz-adv-x="407" vert-adv-y="1000"  />

      
      <glyph glyph-name="uni7b" unicode="&#x7b;" d="M45 275L45 286Q148 294 148 481Q148 497 144.50 541.50Q141 586 141 601Q141 742 298 767L301 756Q281 750 269 744.50Q257 739 243.50 728Q230 717 223.50 698.50Q217 680 217 653Q217 624 222.50 570Q228 516 228 488Q228 333 83 281Q228 228 228 73Q228 44 222.50-10Q217-64 217-92Q217-142 238-162.50Q259-183 301-195L298-206Q141-181 141-40Q141-25 144.50 19.50Q148 64 148 80Q148 267 45 275Z"  horiz-adv-x="349" vert-adv-y="1000"  />

      
      <glyph glyph-name="uni7c" unicode="&#x7c;" d="M116-92L100-92L100 720L116 720L116-92Z"  horiz-adv-x="216" vert-adv-y="1000"  />

      
      <glyph glyph-name="uni7d" unicode="&#x7d;" d="M304 286L304 275Q201 267 201 80Q201 64 204.50 19.50Q208-25 208-40Q208-181 51-206L48-195Q68-189 80-183.50Q92-178 105.50-167Q119-156 125.50-137.50Q132-119 132-92Q132-64 126.50-10Q121 44 121 73Q121 228 266 281Q121 333 121 488Q121 516 126.50 570Q132 624 132 653Q132 703 111 723.50Q90 744 48 756L51 767Q208 742 208 601Q208 586 204.50 541.50Q201 497 201 481Q201 294 304 286Z"  horiz-adv-x="349" vert-adv-y="1000"  />

      
      <glyph glyph-name="uni7e" unicode="&#x7e;" d="M392 332Q449 332 487 387L500 387Q480 342 441.50 311.50Q403 281 358 281Q317 281 252 307Q162 342 135 342Q78 342 41 286L28 286Q47 330 85 361Q123 392 168 392Q208 392 258 372Q372 332 392 332Z"  horiz-adv-x="528" vert-adv-y="1000"  />

      
      <glyph glyph-name="unia1" unicode="&#xa1;" d="M194-204Q188-231 141-231Q94-231 88-204Q109-29 121 121L135 347L147 347Q157 171 161 121Q173-29 194-204M177 505.50Q177 505.50 184 498.25Q191 491 191 470Q191 449 177 434.50Q163 420 141 420Q121 420 106 434.50Q91 449 91 470Q91 491 105.50 505.50Q120 520 141 520Q163 520 177 505.50Z"  horiz-adv-x="282" vert-adv-y="1000"  />

      
      <glyph glyph-name="unia2" unicode="&#xa2;" d="M289-97L277-97L277-11Q183-7 121.50 59Q60 125 60 236Q60 337 115.50 410Q171 483 277 492L277 589L289 589L289 493L301 493Q370 493 411 468.50Q452 444 452 408Q452 384 440 371.50Q428 359 410 359Q368 359 368 403Q368 408 369.50 419.50Q371 431 371 438Q371 456 351.50 468.50Q332 481 297 481L289 481L289 13L304 13Q353 13 396 42Q439 71 464 128L475 123Q417-10 289-11L289-97M141 236Q141 136 178.50 80.50Q216 25 277 15L277 479Q141 462 141 236Z"  horiz-adv-x="528" vert-adv-y="1000"  />

      
      <glyph glyph-name="unia3" unicode="&#xa3;" d="M31 388L141 388Q141 455 142 506Q144 617 194 678Q244 739 341 739Q398 739 431 710.50Q464 682 464 641Q464 619 451.50 602.50Q439 586 418 586Q399 586 389 596.50Q379 607 379 621Q379 642 404 659Q420 671 420 682Q420 698 400.50 712.50Q381 727 345 727Q261 727 230 639Q218 606 216.50 558Q215 510 218 471Q221 393 221 388L379 388L379 376L221 376Q221 322 219 290Q210 126 70 37Q171 74 225 74Q275 74 335.50 50Q396 26 432 26Q459 26 483.50 53.50Q508 81 507 141L519 141Q520 44 468 9Q434-14 367-14Q341-14 273 4Q183 29 134 29Q77 29 10 4L10 19Q47 33 66 53Q99 86 122 155Q131 181 135.50 217Q140 253 140.50 282.50Q141 312 141 376L31 376L31 388Z"  horiz-adv-x="528" vert-adv-y="1000"  />

      
      <glyph glyph-name="unia4" unicode="&#xa4;" d="M526 58L434 149Q366 89 271 89Q178 89 109 150L16 58L4 70L97 162Q31 230 31 325Q31 420 96 487L4 579L16 591L108 499Q177 562 271 562Q364 562 434 500L526 591L538 579L447 488Q514 419 514 325Q514 229 446 161L538 70L526 58M113 481Q113 481 80 448.50Q47 416 47 325Q47 234 113 169.50Q179 105 271 105Q365 105 431.50 169.50Q498 234 498 325Q498 416 431.50 481Q365 546 271 546Q179 546 113 481Z"  horiz-adv-x="542" vert-adv-y="1000"  />

      
      <glyph glyph-name="unia5" unicode="&#xa5;" d="M99 210L229 210L229 287L99 287L99 299L224 299L68 644Q38 709-48 711L-48 723L228 723L228 711L187 711Q149 711 149 687Q149 678 159 655L309 318Q310 317 331 363Q352 409 380.50 475Q409 541 425 583Q452 654 452 680Q452 711 405 711L376 711L376 723L576 723L576 711L545 711Q489 688 459 619Q442 579 379.50 439Q317 299 316 299L448 299L448 287L314 287L314 210L448 210L448 198L314 198L314 66Q314 12 379 12L414 12L414 0L130 0L130 12L165 12Q200 12 214.50 25.50Q229 39 229 66L229 198L99 198L99 210Z"  horiz-adv-x="528" vert-adv-y="1000"  />

      
      <glyph glyph-name="unia6" unicode="&#xa6;" d="M116 383L100 383L100 720L116 720L116 383M116-92L100-92L100 245L116 245L116-92Z"  horiz-adv-x="216" vert-adv-y="1000"  />

      
      <glyph glyph-name="unia7" unicode="&#xa7;" d="M496 240Q496 140 377 54Q418 14 418-40Q418-98 370-145.50Q322-193 240-193Q179-193 139-168.50Q99-144 99-108Q99-84 112-71.50Q125-59 145-59Q171-59 181.50-72.50Q192-86 191-100L189-127Q187-149 203-165Q219-181 267-181Q305-181 334.50-152Q364-123 364-78Q364-23 314 15L132 154Q89 187 65.50 222.50Q42 258 42 306Q42 409 161 493Q120 541 120 590Q120 647 168.50 693Q217 739 300 739Q360 739 400 714Q440 689 440 651Q440 626 427.50 614Q415 602 395 602Q368 602 358 614.50Q348 627 349 642L350 671Q351 693 334.50 710Q318 727 274 727Q236 727 205 696.50Q174 666 174 621Q174 564 245 514L405 394Q496 325 496 240M444 198Q444 275 362 337L169 483Q94 420 94 345Q94 305 111.50 273.50Q129 242 183 201L368 62Q444 122 444 198Z"  horiz-adv-x="538" vert-adv-y="1000"  />

      
      <glyph glyph-name="unia8" unicode="&#xa8;" d="M128 637Q128 617 114 602Q100 587 78 587Q56 587 42 602Q28 617 28 637Q28 658 42 672.50Q56 687 78 687Q101 687 114.50 672.50Q128 658 128 637M321 637Q321 617 307 602Q293 587 271 587Q249 587 235 602Q221 617 221 637Q221 658 235 672.50Q249 687 271 687Q294 687 307.50 672.50Q321 658 321 637Z"  horiz-adv-x="349" vert-adv-y="1000"  />

      
      <glyph glyph-name="unia9" unicode="&#xa9;" d="M525 154L513 154L514 173Q467 146 389 146Q290 146 237.50 202.50Q185 259 185 352Q185 389 195.50 423.50Q206 458 229 490Q252 522 294 541.50Q336 561 393 561Q450 561 512 533L512 552L524 552L531 444L519 444L515 471Q475 549 385 549Q313 549 278.50 494Q244 439 244 353Q244 256 285 207Q326 158 389 158Q431 158 469 182Q507 206 522 237L526 257L538 257L525 154M10 349Q10 499 118 605.50Q226 712 380 712Q533 712 641.50 605.50Q750 499 750 349Q750 198 641.50 92Q533-14 380-14Q226-14 118 92Q10 198 10 349M26 349Q26 205 130 103.50Q234 2 380 2Q526 2 630 103.50Q734 205 734 349Q734 492 630 594Q526 696 380 696Q234 696 130 594Q26 492 26 349Z"  horiz-adv-x="760" vert-adv-y="1000"  />

      
      <glyph glyph-name="uniaa" unicode="&#xaa;" d="M147 727Q134 727 121.50 721.50Q109 716 109 706Q109 702 111.50 694Q114 686 114 683Q114 657 88 657Q76 657 68.50 665Q61 673 61 684Q61 707 89 723Q117 739 150 739Q275 739 275 643L275 477Q275 445 295 445Q311 445 316 477L328 477Q322 430 278 430Q231 430 228 485Q179 430 111 430Q45 430 45 492Q45 526 76 551.50Q107 577 145 589Q183 601 228 607L228 647Q228 706 190 721Q176 727 147 727M228 500L228 595Q101 576 101 500Q101 476 113 464Q125 452 144 452Q164 452 188.50 467Q213 482 228 500Z"  horiz-adv-x="347" vert-adv-y="1000"  />

      
      <glyph glyph-name="uniab" unicode="&#xab;" d="M308 238Q329 217 357 185Q410 125 442 82L433 74Q380 125 336 161Q313 180 237 238Q313 296 336 315Q380 351 433 402L442 394Q410 351 357 291Q329 259 308 238M33 238Q123 295 206 360Q284 421 356 488L366 480Q320 417 231 327Q199 294 138 238Q199 182 231 149Q320 59 366-4L356-12Q284 55 206 116Q123 181 33 238Z"  horiz-adv-x="522" vert-adv-y="1000"  />

      
      <glyph glyph-name="uniac" unicode="&#xac;" d="M519 216L503 216L503 329L9 329L9 345L519 345L519 216Z"  horiz-adv-x="528" vert-adv-y="1000"  />

      
      <glyph glyph-name="uniad" unicode="&#xad;" d="M50 272L50 288L304 288L304 272L50 272Z"  horiz-adv-x="354" vert-adv-y="1000"  />

      
      <glyph glyph-name="uniae" unicode="&#xae;" d="M110 249Q110 249 70 288.50Q30 328 30 441Q30 554 110 633Q190 712 305 712Q420 712 501 632.50Q582 553 582 441Q582 328 501 249Q420 170 305 170Q190 170 110 249M121.50 621.50Q121.50 621.50 83.75 584.25Q46 547 46 441Q46 335 121.50 260.50Q197 186 305 186Q413 186 489.50 260.50Q566 335 566 441Q566 547 489.50 621.50Q413 696 305 696Q197 696 121.50 621.50M428 323Q440 323 440 339L452 339Q452 326 443 314.50Q434 303 414 303Q392 303 377.50 321Q363 339 346 375Q335 399 323 414Q297 442 256 444L256 339Q256 320 277 320L294 320L294 308L183 308L183 320L197 320Q219 320 219 339L219 553Q219 565 214.50 568Q210 571 197 571L183 571L183 583L227 583Q240 583 267 585Q294 587 308 587Q413 587 413 517Q413 482 384 462Q355 442 313 442Q359 428 388 381Q390 378 397.50 361.50Q405 345 413 334Q421 323 428 323M371 516Q371 575 303 575Q278 575 256 566L256 456Q275 453 302 453Q334 453 352.50 470Q371 487 371 516Z"  horiz-adv-x="612" vert-adv-y="1000"  />

      
      <glyph glyph-name="uniaf" unicode="&#xaf;" d="M354 575L63 575L63 591L354 591L354 575Z"  horiz-adv-x="417" vert-adv-y="1000"  />

      
      <glyph glyph-name="unib0" unicode="&#xb0;" d="M79.50 552Q79.50 552 63.75 567.50Q48 583 48 628Q48 673 79.50 704.50Q111 736 157 736Q203 736 235 704.50Q267 673 267 628Q267 583 235 552Q203 521 157 521Q111 521 79.50 552M64 628Q64 591 91.50 564Q119 537 157 537Q195 537 223 564Q251 591 251 628Q251 666 223 693Q195 720 157 720Q119 720 91.50 693Q64 666 64 628Z"  horiz-adv-x="315" vert-adv-y="1000"  />

      
      <glyph glyph-name="unib1" unicode="&#xb1;" d="M519 333L272 333L272 112L256 112L256 333L9 333L9 349L256 349L256 562L272 562L272 349L519 349L519 333M519 42L9 42L9 58L519 58L519 42Z"  horiz-adv-x="528" vert-adv-y="1000"  />

      
      <glyph glyph-name="unib2" unicode="&#xb2;" d="M301 378L293 292L29 292L29 302L139 420Q192 477 218.50 520Q245 563 245 611Q245 672 218 699.50Q191 727 152 727Q99 727 99 689L102 678Q106 661 98 649.50Q90 638 73 638Q62 638 53.50 646Q45 654 45 671Q45 697 75 718Q105 739 156 739Q225 739 261.50 706.50Q298 674 298 614Q298 551 202 459L73 334L211 334Q283 334 288 363Q288 364 288.50 370Q289 376 289 378L301 378Z"  horiz-adv-x="347" vert-adv-y="1000"  />

      
      <glyph glyph-name="unib3" unicode="&#xb3;" d="M326 424Q326 364 285 326.50Q244 289 167 289Q106 289 72 314.50Q38 340 38 370Q38 386 47 393.50Q56 401 67 401Q96 401 96 373Q96 366 92.50 355.50Q89 345 89 337Q89 321 111.50 310.50Q134 300 162 300Q263 300 263 431Q263 460 255.50 481Q248 502 238.50 512Q229 522 212.50 527.50Q196 533 186 534Q176 535 160 535Q138 535 117 530L117 553Q141 547 167 547Q204 547 230 572Q256 597 256 638Q256 681 235 704.50Q214 728 173 727Q124 725 117 703Q115 701 116.50 688Q118 675 118 673Q118 659 109 651.50Q100 644 89 644Q77 644 68.50 652Q60 660 60 677Q60 699 87.50 719Q115 739 173 739Q250 739 281.50 710Q313 681 313 640Q313 608 287 580Q261 552 218 542Q266 533 296 502.50Q326 472 326 424Z"  horiz-adv-x="348" vert-adv-y="1000"  />

      
      <glyph glyph-name="unib4" unicode="&#xb4;" d="M306 698Q306 679 264 652L115 562L91 562L224 693Q258 726 280 726Q306 726 306 698Z"  horiz-adv-x="328" vert-adv-y="1000"  />

      
      <glyph glyph-name="unib5" unicode="&#xb5;" d="M549 0L400 0L400 54Q319-11 237-11Q140-11 107 76Q112-3 130-77Q142-129 142-147Q142-169 134-182.50Q126-196 118-199Q110-202 101-202Q93-202 85-199Q77-196 69-182.50Q61-169 61-147Q61-130 73-77Q95 18 95 128L95 404Q95 430 82.50 436.50Q70 443 15 444L15 456Q95 461 164 495L164 136Q164 95 174.50 68.50Q185 42 204 31Q223 20 238.50 16.50Q254 13 274 13Q331 13 400 68L400 404Q400 430 387.50 436.50Q375 443 320 444L320 456Q394 462 469 495L469 55Q469 32 479 22Q489 12 517 12L549 12L549 0Z"  horiz-adv-x="564" vert-adv-y="1000"  />

      
      <glyph glyph-name="uni03BC" unicode="&#x03BC;" d="M549 0L400 0L400 54Q319-11 237-11Q140-11 107 76Q112-3 130-77Q142-129 142-147Q142-169 134-182.50Q126-196 118-199Q110-202 101-202Q93-202 85-199Q77-196 69-182.50Q61-169 61-147Q61-130 73-77Q95 18 95 128L95 404Q95 430 82.50 436.50Q70 443 15 444L15 456Q95 461 164 495L164 136Q164 95 174.50 68.50Q185 42 204 31Q223 20 238.50 16.50Q254 13 274 13Q331 13 400 68L400 404Q400 430 387.50 436.50Q375 443 320 444L320 456Q394 462 469 495L469 55Q469 32 479 22Q489 12 517 12L549 12L549 0Z"  horiz-adv-x="564" vert-adv-y="1000"  />

      
      <glyph glyph-name="unib6" unicode="&#xb6;" d="M348-92L332-92L332 720L348 720L348-92M214-92L198-92L198 470L192 470Q126 470 86.50 502.50Q47 535 47 596Q47 655 86.50 687.50Q126 720 192 720L214 720L214-92Z"  horiz-adv-x="457" vert-adv-y="1000"  />

      
      <glyph glyph-name="unib7" unicode="&#xb7;" d="M147 319.50Q147 319.50 154 312.25Q161 305 161 284Q161 263 147 248.50Q133 234 111 234Q90 234 75.50 248.50Q61 263 61 284Q61 305 76 319.50Q91 334 111 334Q133 334 147 319.50Z"  horiz-adv-x="222" vert-adv-y="1000"  />

      
      <glyph glyph-name="unib8" unicode="&#xb8;" d="M135-201Q86-201 48-182L53-171Q87-189 129-189Q167-189 184.50-170.50Q202-152 202-125Q202-75 148-75Q136-75 116-81L108-74L146 16L160 16L126-63Q147-56 178-56Q211-56 235-71.50Q259-87 259-118Q259-156 223-178.50Q187-201 135-201Z"  horiz-adv-x="309" vert-adv-y="1000"  />

      
      <glyph glyph-name="unib9" unicode="&#xb9;" d="M257 292L95 292L95 303L113 303Q150 303 150 336L150 646Q121 613 80 586L66 586Q158 674 187 733L202 733L202 336Q202 303 238 303L257 303L257 292Z"  horiz-adv-x="352" vert-adv-y="1000"  />

      
      <glyph glyph-name="uniba" unicode="&#xba;" d="M339 584Q339 530 310.50 493.50Q282 457 247 443.50Q212 430 175 430Q96 430 53.50 477.50Q11 525 11 584Q11 644 53 691.50Q95 739 175 739Q235 739 287 700Q339 661 339 584M276 584Q276 601 273.50 618.50Q271 636 262.50 664Q254 692 231.50 709.50Q209 727 175 727Q142 727 119.50 710Q97 693 88 666Q79 639 76.50 620.50Q74 602 74 584Q74 565 76.50 547Q79 529 88 502Q97 475 119.50 458.50Q142 442 175 442Q202 442 222.50 454.50Q243 467 252.50 483.50Q262 500 268 522.50Q274 545 275 558Q276 571 276 584Z"  horiz-adv-x="350" vert-adv-y="1000"  />

      
      <glyph glyph-name="unibb" unicode="&#xbb;" d="M214 238Q193 259 165 291Q112 351 80 394L89 402Q142 351 186 315Q209 296 285 238Q209 180 186 161Q142 125 89 74L80 82Q112 125 165 185Q193 217 214 238M489 238Q399 181 316 116Q238 55 166-12L156-4Q202 59 291 149Q323 182 384 238Q323 294 291 327Q202 417 156 480L166 488Q238 421 316 360Q399 295 489 238Z"  horiz-adv-x="522" vert-adv-y="1000"  />

      
      <glyph glyph-name="unibc" unicode="&#xbc;" d="M498 106L665 106L665 277L717 314L717 106L767 106L767 94L717 94L717 45Q717 26 726 19Q735 12 755 12L767 12L767 0L610 0L610 12L627 12Q652 12 658.50 18.50Q665 25 665 45L665 94L483 94L483 107Q499 114 672 434L682 453L731 425L498 106M672 730L172-13L157-3L657 741L672 730M257 292L95 292L95 303L113 303Q150 303 150 336L150 646Q121 613 80 586L66 586Q158 674 187 733L202 733L202 336Q202 303 238 303L257 303L257 292Z"  horiz-adv-x="842" vert-adv-y="1000"  />

      
      <glyph glyph-name="unibd" unicode="&#xbd;" d="M678 727L178-16L163-6L663 738L678 727M803 85L795-1L531-1L531 9L641 127Q694 184 720.50 227Q747 270 747 318Q747 379 720 406.50Q693 434 654 434Q601 434 601 396L604 385Q608 368 600 356.50Q592 345 575 345Q564 345 555.50 353Q547 361 547 378Q547 404 577 425Q607 446 658 446Q727 446 763.50 413.50Q800 381 800 321Q800 258 704 166L575 41L713 41Q785 41 790 70Q790 71 790.50 77Q791 83 791 85L803 85M257 292L95 292L95 303L113 303Q150 303 150 336L150 646Q121 613 80 586L66 586Q158 674 187 733L202 733L202 336Q202 303 238 303L257 303L257 292Z"  horiz-adv-x="849" vert-adv-y="1000"  />

      
      <glyph glyph-name="unibe" unicode="&#xbe;" d="M492 106L660 106L660 277Q667 282 694 300Q698 303 712 314L712 106L762 106L762 94L712 94L712 45Q712 26 721 19Q730 12 750 12L762 12L762 0L605 0L605 12L622 12Q646 12 653 18.50Q660 25 660 45L660 94L478 94L478 108Q488 123 504 151L622 351L642 384L676 448L679 452L726 425L492 106M683 730L183-13L168-3L668 741L683 730M326 424Q326 364 285 326.50Q244 289 167 289Q106 289 72 314.50Q38 340 38 370Q38 386 47 393.50Q56 401 67 401Q96 401 96 373Q96 366 92.50 355.50Q89 345 89 337Q89 321 111.50 310.50Q134 300 162 300Q263 300 263 431Q263 460 255.50 481Q248 502 238.50 512Q229 522 212.50 527.50Q196 533 186 534Q176 535 160 535Q138 535 117 530L117 553Q141 547 167 547Q204 547 230 572Q256 597 256 638Q256 681 235 704.50Q214 728 173 727Q124 725 117 703Q115 701 116.50 688Q118 675 118 673Q118 659 109 651.50Q100 644 89 644Q77 644 68.50 652Q60 660 60 677Q60 699 87.50 719Q115 739 173 739Q250 739 281.50 710Q313 681 313 640Q313 608 287 580Q261 552 218 542Q266 533 296 502.50Q326 472 326 424Z"  horiz-adv-x="837" vert-adv-y="1000"  />

      
      <glyph glyph-name="unibf" unicode="&#xbf;" d="M37 1Q37 40 50.50 74Q64 108 93 141.50Q122 175 150.50 199.50Q179 224 226 261Q244 275 251.50 281.50Q259 288 267.50 302Q276 316 276 331L276 366L288 366L288 241Q288 221 278.50 208.50Q269 196 242 176Q212 153 194 137Q176 121 150.50 92Q125 63 112 29Q99-5 99-44Q99-116 144.50-167.50Q190-219 275-219Q301-219 319-211.50Q337-204 344-192.50Q351-181 353-173.50Q355-166 355-159Q355-154 353-143.50Q351-133 351-127Q351-107 363.50-95Q376-83 398-83Q417-83 430-94.50Q443-106 443-129Q443-169 399.50-200Q356-231 277-231Q172-231 104.50-166.50Q37-102 37 1M246 434.50Q246 434.50 239 441.75Q232 449 232 470Q232 491 246 505.50Q260 520 282 520Q303 520 317.50 505.50Q332 491 332 470Q332 449 317 434.50Q302 420 282 420Q260 420 246 434.50Z"  horiz-adv-x="474" vert-adv-y="1000"  />

      
      <glyph glyph-name="unic0" unicode="&#xc0;" d="M712 0L448 0L448 12L483 12Q532 12 532 43Q532 56 450 293L194 293L159 203Q115 87 115 60Q115 22 150 12L195 12L195 0L0 0L0 12L30 12Q59 33 96.50 104Q134 175 195 334L282 569L341 723L365 723L613 77Q625 45 642 28.50Q659 12 694 12L712 12L712 0M445 305L321 635L198 305L445 305M197 905Q197 933 223 933Q245 933 279 900L412 769L388 769Q287 828 239 859Q197 886 197 905Z"  horiz-adv-x="712" vert-adv-y="1000"  />

      
      <glyph glyph-name="unic1" unicode="&#xc1;" d="M712 0L448 0L448 12L483 12Q532 12 532 43Q532 56 450 293L194 293L159 203Q115 87 115 60Q115 22 150 12L195 12L195 0L0 0L0 12L30 12Q59 33 96.50 104Q134 175 195 334L282 569L341 723L365 723L613 77Q625 45 642 28.50Q659 12 694 12L712 12L712 0M445 305L321 635L198 305L445 305M525 905Q525 886 483 859L334 769L310 769L443 900Q477 933 499 933Q525 933 525 905Z"  horiz-adv-x="712" vert-adv-y="1000"  />

      
      <glyph glyph-name="unic2" unicode="&#xc2;" d="M712 0L448 0L448 12L483 12Q532 12 532 43Q532 56 450 293L194 293L159 203Q115 87 115 60Q115 22 150 12L195 12L195 0L0 0L0 12L30 12Q59 33 96.50 104Q134 175 195 334L282 569L341 723L365 723L613 77Q625 45 642 28.50Q659 12 694 12L712 12L712 0M445 305L321 635L198 305L445 305M422 799Q390 823 353 855L284 799L223 753L208 753Q224 768 269 819Q283 835 300 857.50Q317 880 328 894L338 909L368 909Q405 855 437 819Q471 779 497 753L483 753L422 799Z"  horiz-adv-x="712" vert-adv-y="1000"  />

      
      <glyph glyph-name="unic3" unicode="&#xc3;" d="M712 0L448 0L448 12L483 12Q532 12 532 43Q532 56 450 293L194 293L159 203Q115 87 115 60Q115 22 150 12L195 12L195 0L0 0L0 12L30 12Q59 33 96.50 104Q134 175 195 334L282 569L341 723L365 723L613 77Q625 45 642 28.50Q659 12 694 12L712 12L712 0M445 305L321 635L198 305L445 305M377 840Q428 810 453 810Q506 810 546 860L556 852Q506 766 436 766Q404 766 351 799Q302 829 275 829Q221 829 182 779L172 787Q224 873 292 873Q321 873 377 840Z"  horiz-adv-x="712" vert-adv-y="1000"  />

      
      <glyph glyph-name="unic4" unicode="&#xc4;" d="M712 0L448 0L448 12L483 12Q532 12 532 43Q532 56 450 293L194 293L159 203Q115 87 115 60Q115 22 150 12L195 12L195 0L0 0L0 12L30 12Q59 33 96.50 104Q134 175 195 334L282 569L341 723L365 723L613 77Q625 45 642 28.50Q659 12 694 12L712 12L712 0M445 305L321 635L198 305L445 305M307 812Q307 792 293 777Q279 762 257 762Q235 762 221 777Q207 792 207 812Q207 833 221 847.50Q235 862 257 862Q280 862 293.50 847.50Q307 833 307 812M500 812Q500 792 486 777Q472 762 450 762Q428 762 414 777Q400 792 400 812Q400 833 414 847.50Q428 862 450 862Q473 862 486.50 847.50Q500 833 500 812Z"  horiz-adv-x="712" vert-adv-y="1000"  />

      
      <glyph glyph-name="unic5" unicode="&#xc5;" d="M266 795Q266 831 291 856.50Q316 882 352 882Q388 882 413.50 856.50Q439 831 439 795Q439 764 419 740.50Q399 717 369 711L613 77Q625 45 642 28.50Q659 12 694 12L712 12L712 0L448 0L448 12L483 12Q532 12 532 43Q532 56 450 293L194 293L159 203Q115 87 115 60Q115 22 150 12L195 12L195 0L0 0L0 12L30 12Q59 33 96.50 104Q134 175 195 334L282 569Q292 597 336 710Q306 716 286 740Q266 764 266 795M445 305L321 635L198 305L445 305M302.50 845Q302.50 845 292.25 834.50Q282 824 282 795Q282 766 302.50 745.50Q323 725 352 725Q382 725 402.50 745.50Q423 766 423 795Q423 824 402.50 845Q382 866 352 866Q323 866 302.50 845Z"  horiz-adv-x="712" vert-adv-y="1000"  />

      
      <glyph glyph-name="unic6" unicode="&#xc6;" d="M386 723L927 723L937 572L925 572L913 655Q893 681 823.50 696Q754 711 670 711Q601 711 579.50 700.50Q558 690 558 656L558 385L614 385Q670 385 709 389.50Q748 394 767.50 399.50Q787 405 797 415.50Q807 426 808.50 432Q810 438 810 449L810 472L822 472L822 286L810 286L810 311Q810 322 808.50 328Q807 334 797 344Q787 354 767.50 359.50Q748 365 709 369Q670 373 614 373L558 373L558 66Q558 34 575.50 23Q593 12 623 12Q769 12 851 32Q923 52 947 109L958 154L970 154L941 0L373 0L373 12L408 12Q448 12 460.50 23Q473 34 473 66L473 291L250 291L203 210Q123 72 123 41Q123 28 129.50 21Q136 14 141.50 13Q147 12 158 12L197 12L197 0L0 0L0 12L31 12Q86 49 187 213L438 641Q461 682 461 691Q461 711 426 711L386 711L386 723M473 303L473 675L322 413L257 303L473 303Z"  horiz-adv-x="990" vert-adv-y="1000"  />

      
      <glyph glyph-name="unic7" unicode="&#xc7;" d="M669 0L657 0L659 38Q574-11 430-14L406-72Q432-62 461-62Q497-62 525-80.50Q553-99 553-134Q553-177 514-203.50Q475-230 416-230Q367-230 325-208L330-197Q367-218 409-218Q447-218 467.50-194.50Q488-171 488-143Q488-115 472.50-100Q457-85 429-85Q413-85 396-91L387-84L415-13Q242-10 150.50 90.50Q59 191 59 355Q59 408 70 459Q81 510 108.50 562Q136 614 177.50 652.50Q219 691 285 715Q351 739 433 739Q535 739 655 686L654 723L666 723L679 541L667 541L661 587Q629 649 568 688Q507 727 418 727Q351 727 298.50 697.50Q246 668 215 616Q184 564 168 499.50Q152 435 152 361Q152 183 231 90.50Q310-2 426-2Q505-2 573.50 32Q642 66 667 115L680 175L693 175L669 0Z"  horiz-adv-x="743" vert-adv-y="1000"  />

      
      <glyph glyph-name="unic8" unicode="&#xc8;" d="M46 723L600 723L609 572L597 572L586 655Q566 681 496 696Q426 711 342 711Q273 711 252 700.50Q231 690 231 656L231 385L288 385Q344 385 383 389.50Q422 394 441 399.50Q460 405 470 415.50Q480 426 481.50 432Q483 438 483 449L483 472L495 472L495 286L483 286L483 311Q483 322 481.50 328Q480 334 470 344Q460 354 440.50 359.50Q421 365 382.50 369Q344 373 288 373L231 373L231 66Q231 34 247.50 23Q264 12 295 12Q444 12 524 32Q599 53 620 109L631 154L643 154L614 0L46 0L46 12L81 12Q121 12 133.50 23Q146 34 146 66L146 657Q146 690 129.50 700.50Q113 711 81 711L46 711L46 723M239 905Q239 933 265 933Q287 933 321 900L454 769L430 769Q329 828 281 859Q239 886 239 905Z"  horiz-adv-x="663" vert-adv-y="1000"  />

      
      <glyph glyph-name="unic9" unicode="&#xc9;" d="M46 723L600 723L609 572L597 572L586 655Q566 681 496 696Q426 711 342 711Q273 711 252 700.50Q231 690 231 656L231 385L288 385Q344 385 383 389.50Q422 394 441 399.50Q460 405 470 415.50Q480 426 481.50 432Q483 438 483 449L483 472L495 472L495 286L483 286L483 311Q483 322 481.50 328Q480 334 470 344Q460 354 440.50 359.50Q421 365 382.50 369Q344 373 288 373L231 373L231 66Q231 34 247.50 23Q264 12 295 12Q444 12 524 32Q599 53 620 109L631 154L643 154L614 0L46 0L46 12L81 12Q121 12 133.50 23Q146 34 146 66L146 657Q146 690 129.50 700.50Q113 711 81 711L46 711L46 723M528 905Q528 886 486 859L337 769L313 769L446 900Q480 933 502 933Q528 933 528 905Z"  horiz-adv-x="663" vert-adv-y="1000"  />

      
      <glyph glyph-name="unica" unicode="&#xca;" d="M46 723L600 723L609 572L597 572L586 655Q566 681 496 696Q426 711 342 711Q273 711 252 700.50Q231 690 231 656L231 385L288 385Q344 385 383 389.50Q422 394 441 399.50Q460 405 470 415.50Q480 426 481.50 432Q483 438 483 449L483 472L495 472L495 286L483 286L483 311Q483 322 481.50 328Q480 334 470 344Q460 354 440.50 359.50Q421 365 382.50 369Q344 373 288 373L231 373L231 66Q231 34 247.50 23Q264 12 295 12Q444 12 524 32Q599 53 620 109L631 154L643 154L614 0L46 0L46 12L81 12Q121 12 133.50 23Q146 34 146 66L146 657Q146 690 129.50 700.50Q113 711 81 711L46 711L46 723M436 799Q404 823 367 855L298 799L237 753L222 753Q238 768 283 819Q297 835 314 857.50Q331 880 342 894L352 909L382 909Q419 855 451 819Q485 779 511 753L497 753L436 799Z"  horiz-adv-x="663" vert-adv-y="1000"  />

      
      <glyph glyph-name="unicb" unicode="&#xcb;" d="M46 723L600 723L609 572L597 572L586 655Q566 681 496 696Q426 711 342 711Q273 711 252 700.50Q231 690 231 656L231 385L288 385Q344 385 383 389.50Q422 394 441 399.50Q460 405 470 415.50Q480 426 481.50 432Q483 438 483 449L483 472L495 472L495 286L483 286L483 311Q483 322 481.50 328Q480 334 470 344Q460 354 440.50 359.50Q421 365 382.50 369Q344 373 288 373L231 373L231 66Q231 34 247.50 23Q264 12 295 12Q444 12 524 32Q599 53 620 109L631 154L643 154L614 0L46 0L46 12L81 12Q121 12 133.50 23Q146 34 146 66L146 657Q146 690 129.50 700.50Q113 711 81 711L46 711L46 723M316 812Q316 792 302 777Q288 762 266 762Q244 762 230 777Q216 792 216 812Q216 833 230 847.50Q244 862 266 862Q289 862 302.50 847.50Q316 833 316 812M509 812Q509 792 495 777Q481 762 459 762Q437 762 423 777Q409 792 409 812Q409 833 423 847.50Q437 862 459 862Q482 862 495.50 847.50Q509 833 509 812Z"  horiz-adv-x="663" vert-adv-y="1000"  />

      
      <glyph glyph-name="unicc" unicode="&#xcc;" d="M331 0L46 0L46 12L80 12Q119 12 132.50 24Q146 36 146 66L146 657Q146 689 132 700Q118 711 80 711L46 711L46 723L331 723L331 711L294 711Q257 711 244 699.50Q231 688 231 657L231 66Q231 36 243.50 24Q256 12 294 12L331 12L331 0M73 905Q73 933 99 933Q121 933 155 900L288 769L264 769Q163 828 115 859Q73 886 73 905Z"  horiz-adv-x="377" vert-adv-y="1000"  />

      
      <glyph glyph-name="unicd" unicode="&#xcd;" d="M331 0L46 0L46 12L80 12Q119 12 132.50 24Q146 36 146 66L146 657Q146 689 132 700Q118 711 80 711L46 711L46 723L331 723L331 711L294 711Q257 711 244 699.50Q231 688 231 657L231 66Q231 36 243.50 24Q256 12 294 12L331 12L331 0M352 905Q352 886 310 859L161 769L137 769L270 900Q304 933 326 933Q352 933 352 905Z"  horiz-adv-x="377" vert-adv-y="1000"  />

      
      <glyph glyph-name="unice" unicode="&#xce;" d="M331 0L46 0L46 12L80 12Q119 12 132.50 24Q146 36 146 66L146 657Q146 689 132 700Q118 711 80 711L46 711L46 723L331 723L331 711L294 711Q257 711 244 699.50Q231 688 231 657L231 66Q231 36 243.50 24Q256 12 294 12L331 12L331 0M257 799Q225 823 188 855L119 799L58 753L43 753Q59 768 104 819Q118 835 135 857.50Q152 880 162 894L173 909L203 909Q240 855 272 819Q306 779 332 753L318 753L257 799Z"  horiz-adv-x="377" vert-adv-y="1000"  />

      
      <glyph glyph-name="unicf" unicode="&#xcf;" d="M331 0L46 0L46 12L80 12Q119 12 132.50 24Q146 36 146 66L146 657Q146 689 132 700Q118 711 80 711L46 711L46 723L331 723L331 711L294 711Q257 711 244 699.50Q231 688 231 657L231 66Q231 36 243.50 24Q256 12 294 12L331 12L331 0M142 812Q142 792 128 777Q114 762 92 762Q70 762 56 777Q42 792 42 812Q42 833 56 847.50Q70 862 92 862Q115 862 128.50 847.50Q142 833 142 812M335 812Q335 792 321 777Q307 762 285 762Q263 762 249 777Q235 792 235 812Q235 833 249 847.50Q263 862 285 862Q308 862 321.50 847.50Q335 833 335 812Z"  horiz-adv-x="377" vert-adv-y="1000"  />

      
      <glyph glyph-name="unid0" unicode="&#xd0;" d="M149 657Q149 688 133.50 699.50Q118 711 83 711L49 711L49 723L204 723Q223 723 296.50 725.50Q370 728 403 728Q505 728 581 700Q657 672 696.50 634Q736 596 759.50 544.50Q783 493 788.50 457.50Q794 422 794 388Q794 357 790.50 325Q787 293 776 253.50Q765 214 747.50 178.50Q730 143 699.50 108.50Q669 74 629.50 49.50Q590 25 531.50 10Q473-5 403-5Q387-5 349-3.50Q311-2 304-2Q242 0 222 0L49 0L49 12L83 12Q123 12 136 23Q149 34 149 66L149 371L30 371L30 387L149 387L149 657M701 379Q701 420 693.50 462Q686 504 665.50 551Q645 598 613 633.50Q581 669 527 692.50Q473 716 403 716Q301 716 234 687L234 387L406 387L406 371L234 371L234 40Q294 7 400 7Q550 7 625.50 112.50Q701 218 701 379Z"  horiz-adv-x="850" vert-adv-y="1000"  />

      
      <glyph glyph-name="unid1" unicode="&#xd1;" d="M751 711L690 711Q656 657 656 469L656-14L643-14L155 592L155 245Q155 65 189 12L250 12L250 0L46 0L46 12L107 12Q138 61 141 245L141 609Q131 622 98.50 662.50Q66 703 51 723L157 723L642 116L642 499Q642 564 633 627Q624 690 609 711L547 711L547 723L751 723L751 711M408 840Q459 810 484 810Q537 810 577 860L587 852Q537 766 467 766Q435 766 382 799Q333 829 306 829Q252 829 213 779L203 787Q255 873 323 873Q352 873 408 840Z"  horiz-adv-x="797" vert-adv-y="1000"  />

      
      <glyph glyph-name="unid2" unicode="&#xd2;" d="M809 363Q809 315 798 266.50Q787 218 759.50 166.50Q732 115 690.50 75.50Q649 36 582.50 11Q516-14 433-14Q351-14 284.50 11Q218 36 177 75.50Q136 115 108.50 166Q81 217 70 266Q59 315 59 363Q59 413 71 463.50Q83 514 111.50 564Q140 614 182 652.50Q224 691 289 715Q354 739 433 739Q533 739 608.50 705Q684 671 726 614.50Q768 558 788.50 494.50Q809 431 809 363M716 363Q716 524 641.50 625.50Q567 727 433 727Q299 727 225.50 629Q152 531 152 363Q152 267 182.50 186Q213 105 278 51.50Q343-2 433-2Q502-2 557.50 28.50Q613 59 646.50 111Q680 163 698 227.50Q716 292 716 363M320 905Q320 933 346 933Q368 933 402 900L535 769L511 769Q410 828 362 859Q320 886 320 905Z"  horiz-adv-x="868" vert-adv-y="1000"  />

      
      <glyph glyph-name="unid3" unicode="&#xd3;" d="M809 363Q809 315 798 266.50Q787 218 759.50 166.50Q732 115 690.50 75.50Q649 36 582.50 11Q516-14 433-14Q351-14 284.50 11Q218 36 177 75.50Q136 115 108.50 166Q81 217 70 266Q59 315 59 363Q59 413 71 463.50Q83 514 111.50 564Q140 614 182 652.50Q224 691 289 715Q354 739 433 739Q533 739 608.50 705Q684 671 726 614.50Q768 558 788.50 494.50Q809 431 809 363M716 363Q716 524 641.50 625.50Q567 727 433 727Q299 727 225.50 629Q152 531 152 363Q152 267 182.50 186Q213 105 278 51.50Q343-2 433-2Q502-2 557.50 28.50Q613 59 646.50 111Q680 163 698 227.50Q716 292 716 363M609 905Q609 886 567 859L418 769L394 769L527 900Q561 933 583 933Q609 933 609 905Z"  horiz-adv-x="868" vert-adv-y="1000"  />

      
      <glyph glyph-name="unid4" unicode="&#xd4;" d="M809 363Q809 315 798 266.50Q787 218 759.50 166.50Q732 115 690.50 75.50Q649 36 582.50 11Q516-14 433-14Q351-14 284.50 11Q218 36 177 75.50Q136 115 108.50 166Q81 217 70 266Q59 315 59 363Q59 413 71 463.50Q83 514 111.50 564Q140 614 182 652.50Q224 691 289 715Q354 739 433 739Q533 739 608.50 705Q684 671 726 614.50Q768 558 788.50 494.50Q809 431 809 363M716 363Q716 524 641.50 625.50Q567 727 433 727Q299 727 225.50 629Q152 531 152 363Q152 267 182.50 186Q213 105 278 51.50Q343-2 433-2Q502-2 557.50 28.50Q613 59 646.50 111Q680 163 698 227.50Q716 292 716 363M503 799Q471 823 434 855L365 799L304 753L289 753Q305 768 350 819Q364 835 381 857.50Q398 880 408 894L419 909L449 909Q486 855 518 819Q552 779 578 753L564 753L503 799Z"  horiz-adv-x="868" vert-adv-y="1000"  />

      
      <glyph glyph-name="unid5" unicode="&#xd5;" d="M809 363Q809 315 798 266.50Q787 218 759.50 166.50Q732 115 690.50 75.50Q649 36 582.50 11Q516-14 433-14Q351-14 284.50 11Q218 36 177 75.50Q136 115 108.50 166Q81 217 70 266Q59 315 59 363Q59 413 71 463.50Q83 514 111.50 564Q140 614 182 652.50Q224 691 289 715Q354 739 433 739Q533 739 608.50 705Q684 671 726 614.50Q768 558 788.50 494.50Q809 431 809 363M716 363Q716 524 641.50 625.50Q567 727 433 727Q299 727 225.50 629Q152 531 152 363Q152 267 182.50 186Q213 105 278 51.50Q343-2 433-2Q502-2 557.50 28.50Q613 59 646.50 111Q680 163 698 227.50Q716 292 716 363M455 840Q506 810 531 810Q584 810 624 860L634 852Q584 766 514 766Q482 766 429 799Q380 829 353 829Q299 829 260 779L250 787Q302 873 370 873Q399 873 455 840Z"  horiz-adv-x="868" vert-adv-y="1000"  />

      
      <glyph glyph-name="unid6" unicode="&#xd6;" d="M809 363Q809 315 798 266.50Q787 218 759.50 166.50Q732 115 690.50 75.50Q649 36 582.50 11Q516-14 433-14Q351-14 284.50 11Q218 36 177 75.50Q136 115 108.50 166Q81 217 70 266Q59 315 59 363Q59 413 71 463.50Q83 514 111.50 564Q140 614 182 652.50Q224 691 289 715Q354 739 433 739Q533 739 608.50 705Q684 671 726 614.50Q768 558 788.50 494.50Q809 431 809 363M716 363Q716 524 641.50 625.50Q567 727 433 727Q299 727 225.50 629Q152 531 152 363Q152 267 182.50 186Q213 105 278 51.50Q343-2 433-2Q502-2 557.50 28.50Q613 59 646.50 111Q680 163 698 227.50Q716 292 716 363M389 812Q389 792 375 777Q361 762 339 762Q317 762 303 777Q289 792 289 812Q289 833 303 847.50Q317 862 339 862Q362 862 375.50 847.50Q389 833 389 812M582 812Q582 792 568 777Q554 762 532 762Q510 762 496 777Q482 792 482 812Q482 833 496 847.50Q510 862 532 862Q555 862 568.50 847.50Q582 833 582 812Z"  horiz-adv-x="868" vert-adv-y="1000"  />

      
      <glyph glyph-name="unid7" unicode="&#xd7;" d="M454 118L265 302L76 118L64 130L253 315L63 500L76 513L265 327L454 513L466 500L277 315L466 129L454 118Z"  horiz-adv-x="528" vert-adv-y="1000"  />

      
      <glyph glyph-name="unid8" unicode="&#xd8;" d="M809 363Q809 315 798 266.50Q787 218 759.50 166.50Q732 115 690.50 75.50Q649 36 582.50 11Q516-14 433-14Q283-14 185 69L111-16L98-3L172 81Q114 137 86.50 213Q59 289 59 363Q59 413 71 463.50Q83 514 111.50 564Q140 614 182 652.50Q224 691 289 715Q354 739 433 739Q581 739 678 662L745 739L758 727L691 651Q751 597 780 520.50Q809 444 809 363M716 363Q716 512 654 607L222 111Q300-2 433-2Q502-2 557.50 28.50Q613 59 646.50 111Q680 163 698 227.50Q716 292 716 363M152 363Q152 226 212 127L643 622Q565 727 433 727Q299 727 225.50 629Q152 531 152 363Z"  horiz-adv-x="868" vert-adv-y="1000"  />

      
      <glyph glyph-name="unid9" unicode="&#xd9;" d="M779 711L720 711Q691 660 686 489L686 316Q686 243 673 186Q660 129 630.50 83.50Q601 38 548 14Q495-10 420-10Q360-10 312 2Q264 14 234 30Q204 46 183 73Q162 100 152 120.50Q142 141 136.50 172Q131 203 130.50 216.50Q130 230 130 252L130 657Q130 711 63 711L30 711L30 723L315 723L315 711L278 711Q215 711 215 657L215 235Q215 181 230 138.50Q245 96 267.50 71.50Q290 47 319.50 31.50Q349 16 373.50 11Q398 6 421 6Q480 6 524.50 22.50Q569 39 596.50 66Q624 93 641.50 133.50Q659 174 665.50 218Q672 262 672 316L672 498Q672 581 661 638.50Q650 696 639 711L578 711L578 723L779 723L779 711M296 905Q296 933 322 933Q344 933 378 900L511 769L487 769Q386 828 338 859Q296 886 296 905Z"  horiz-adv-x="809" vert-adv-y="1000"  />

      
      <glyph glyph-name="unida" unicode="&#xda;" d="M779 711L720 711Q691 660 686 489L686 316Q686 243 673 186Q660 129 630.50 83.50Q601 38 548 14Q495-10 420-10Q360-10 312 2Q264 14 234 30Q204 46 183 73Q162 100 152 120.50Q142 141 136.50 172Q131 203 130.50 216.50Q130 230 130 252L130 657Q130 711 63 711L30 711L30 723L315 723L315 711L278 711Q215 711 215 657L215 235Q215 181 230 138.50Q245 96 267.50 71.50Q290 47 319.50 31.50Q349 16 373.50 11Q398 6 421 6Q480 6 524.50 22.50Q569 39 596.50 66Q624 93 641.50 133.50Q659 174 665.50 218Q672 262 672 316L672 498Q672 581 661 638.50Q650 696 639 711L578 711L578 723L779 723L779 711M615 905Q615 886 573 859L424 769L400 769L533 900Q567 933 589 933Q615 933 615 905Z"  horiz-adv-x="809" vert-adv-y="1000"  />

      
      <glyph glyph-name="unidb" unicode="&#xdb;" d="M779 711L720 711Q691 660 686 489L686 316Q686 243 673 186Q660 129 630.50 83.50Q601 38 548 14Q495-10 420-10Q360-10 312 2Q264 14 234 30Q204 46 183 73Q162 100 152 120.50Q142 141 136.50 172Q131 203 130.50 216.50Q130 230 130 252L130 657Q130 711 63 711L30 711L30 723L315 723L315 711L278 711Q215 711 215 657L215 235Q215 181 230 138.50Q245 96 267.50 71.50Q290 47 319.50 31.50Q349 16 373.50 11Q398 6 421 6Q480 6 524.50 22.50Q569 39 596.50 66Q624 93 641.50 133.50Q659 174 665.50 218Q672 262 672 316L672 498Q672 581 661 638.50Q650 696 639 711L578 711L578 723L779 723L779 711M511 799Q479 823 442 855L373 799L312 753L297 753Q313 768 358 819Q372 835 389 857.50Q406 880 416 894L427 909L457 909Q494 855 526 819Q560 779 586 753L572 753L511 799Z"  horiz-adv-x="809" vert-adv-y="1000"  />

      
      <glyph glyph-name="unidc" unicode="&#xdc;" d="M779 711L720 711Q691 660 686 489L686 316Q686 243 673 186Q660 129 630.50 83.50Q601 38 548 14Q495-10 420-10Q360-10 312 2Q264 14 234 30Q204 46 183 73Q162 100 152 120.50Q142 141 136.50 172Q131 203 130.50 216.50Q130 230 130 252L130 657Q130 711 63 711L30 711L30 723L315 723L315 711L278 711Q215 711 215 657L215 235Q215 181 230 138.50Q245 96 267.50 71.50Q290 47 319.50 31.50Q349 16 373.50 11Q398 6 421 6Q480 6 524.50 22.50Q569 39 596.50 66Q624 93 641.50 133.50Q659 174 665.50 218Q672 262 672 316L672 498Q672 581 661 638.50Q650 696 639 711L578 711L578 723L779 723L779 711M391 812Q391 792 377 777Q363 762 341 762Q319 762 305 777Q291 792 291 812Q291 833 305 847.50Q319 862 341 862Q364 862 377.50 847.50Q391 833 391 812M584 812Q584 792 570 777Q556 762 534 762Q512 762 498 777Q484 792 484 812Q484 833 498 847.50Q512 862 534 862Q557 862 570.50 847.50Q584 833 584 812Z"  horiz-adv-x="809" vert-adv-y="1000"  />

      
      <glyph glyph-name="unidd" unicode="&#xdd;" d="M726 711L695 711Q648 687 608 618L512 459L415 299L415 66Q415 38 430.50 25Q446 12 481 12L515 12L515 0L231 0L231 12L265 12Q300 12 315 25.50Q330 39 330 66L330 291L117 642Q108 657 102 665Q96 673 82.50 685Q69 697 48.50 703.50Q28 710 0 711L0 723L277 723L277 711L237 711Q209 711 201.50 695Q194 679 209 656L409 316L498 465Q553 558 565 582Q601 654 601 679Q601 711 554 711L525 711L525 723L726 723L726 711M562 905Q562 886 520 859L371 769L347 769L480 900Q514 933 536 933Q562 933 562 905Z"  horiz-adv-x="726" vert-adv-y="1000"  />

      
      <glyph glyph-name="unide" unicode="&#xde;" d="M330 0L46 0L46 12L80 12Q119 12 132 24Q145 36 145 66L145 657Q145 689 131 700Q117 711 80 711L46 711L46 723L330 723L330 711L294 711Q256 711 243 699.50Q230 688 230 657L230 591Q290 606 354 606Q430 606 485 589Q540 572 569.50 542Q599 512 612 478.50Q625 445 625 405Q625 311 551.50 248.50Q478 186 346 186Q272 186 230 194L230 66Q230 36 242.50 24Q255 12 294 12L330 12L330 0M532 405Q532 496 481.50 545Q431 594 345 594Q275 594 230 580L230 207Q283 199 341 199Q427 199 479.50 251Q532 303 532 405Z"  horiz-adv-x="665" vert-adv-y="1000"  />

      
      <glyph glyph-name="unidf" unicode="&#xdf;" d="M543 154Q543 89 492 39Q441-11 368-11Q317-11 290 7Q263 25 263 53Q263 73 274.50 84.50Q286 96 301 96Q342 96 342 60Q342 58 341.50 54.50Q341 51 340.50 45Q340 39 340 31Q340 19 352 10Q364 1 386 1Q430 1 456.50 33Q483 65 483 119Q483 214 389 273L339 304Q293 332 272.50 354.50Q252 377 252 400Q252 417 259.50 433.50Q267 450 276 461.50Q285 473 307 500Q328 525 339 541Q350 557 362 587Q374 617 374 648Q374 707 351.50 736.50Q329 766 276 766Q165 766 165 535L165 55Q165 32 174.50 22Q184 12 212 12L226 12L226 0L15 0L15 12L49 12Q75 12 85.50 22Q96 32 96 55L96 469L15 469L15 480L96 494L96 501Q96 544 99 576.50Q102 609 114.50 649Q127 689 148 715.50Q169 742 208.50 760Q248 778 303 778Q358 778 406.50 748.50Q455 719 455 657Q455 620 431.50 588Q408 556 349 502Q306 463 306 439Q306 413 379 366L455 317Q509 283 526 244Q543 205 543 154Z"  horiz-adv-x="568" vert-adv-y="1000"  />

      
      <glyph glyph-name="unie0" unicode="&#xe0;" d="M429 13Q442 13 452.50 26.50Q463 40 467 65L479 65Q468-11 405-11Q329-11 329 92Q230-11 139-11Q82-11 52 17.50Q22 46 22 91Q22 126 41.50 155.50Q61 185 90.50 205Q120 225 159.50 240.50Q199 256 233.50 264.50Q268 273 303 278L329 282L329 333Q329 409 302 445Q275 481 204 481Q172 481 147 468.50Q122 456 122 432Q122 423 126.50 412Q131 401 131 392Q131 354 89 354Q72 354 61.50 365.50Q51 377 51 396Q51 435 96.50 464Q142 493 210 493Q398 493 398 333L398 68Q398 13 429 13M329 108L329 270Q279 261 242 249Q205 237 171.50 218Q138 199 120.50 170.50Q103 142 103 104Q103 61 125 41Q147 21 182 21Q216 21 258.50 48.50Q301 76 329 108M99 698Q99 726 125 726Q147 726 181 693L314 562L290 562Q189 621 141 652Q99 679 99 698Z"  horiz-adv-x="484" vert-adv-y="1000"  />

      
      <glyph glyph-name="unie1" unicode="&#xe1;" d="M429 13Q442 13 452.50 26.50Q463 40 467 65L479 65Q468-11 405-11Q329-11 329 92Q230-11 139-11Q82-11 52 17.50Q22 46 22 91Q22 126 41.50 155.50Q61 185 90.50 205Q120 225 159.50 240.50Q199 256 233.50 264.50Q268 273 303 278L329 282L329 333Q329 409 302 445Q275 481 204 481Q172 481 147 468.50Q122 456 122 432Q122 423 126.50 412Q131 401 131 392Q131 354 89 354Q72 354 61.50 365.50Q51 377 51 396Q51 435 96.50 464Q142 493 210 493Q398 493 398 333L398 68Q398 13 429 13M329 108L329 270Q279 261 242 249Q205 237 171.50 218Q138 199 120.50 170.50Q103 142 103 104Q103 61 125 41Q147 21 182 21Q216 21 258.50 48.50Q301 76 329 108M393 698Q393 679 351 652L202 562L178 562L311 693Q345 726 367 726Q393 726 393 698Z"  horiz-adv-x="484" vert-adv-y="1000"  />

      
      <glyph glyph-name="unie2" unicode="&#xe2;" d="M429 13Q442 13 452.50 26.50Q463 40 467 65L479 65Q468-11 405-11Q329-11 329 92Q230-11 139-11Q82-11 52 17.50Q22 46 22 91Q22 126 41.50 155.50Q61 185 90.50 205Q120 225 159.50 240.50Q199 256 233.50 264.50Q268 273 303 278L329 282L329 333Q329 409 302 445Q275 481 204 481Q172 481 147 468.50Q122 456 122 432Q122 423 126.50 412Q131 401 131 392Q131 354 89 354Q72 354 61.50 365.50Q51 377 51 396Q51 435 96.50 464Q142 493 210 493Q398 493 398 333L398 68Q398 13 429 13M329 108L329 270Q279 261 242 249Q205 237 171.50 218Q138 199 120.50 170.50Q103 142 103 104Q103 61 125 41Q147 21 182 21Q216 21 258.50 48.50Q301 76 329 108M304 601Q272 625 235 657L166 601L105 555L90 555Q106 570 151 621Q165 637 182 659.50Q199 682 210 696L220 711L250 711Q287 657 319 621Q353 581 379 555L365 555L304 601Z"  horiz-adv-x="484" vert-adv-y="1000"  />

      
      <glyph glyph-name="unie3" unicode="&#xe3;" d="M429 13Q442 13 452.50 26.50Q463 40 467 65L479 65Q468-11 405-11Q329-11 329 92Q230-11 139-11Q82-11 52 17.50Q22 46 22 91Q22 126 41.50 155.50Q61 185 90.50 205Q120 225 159.50 240.50Q199 256 233.50 264.50Q268 273 303 278L329 282L329 333Q329 409 302 445Q275 481 204 481Q172 481 147 468.50Q122 456 122 432Q122 423 126.50 412Q131 401 131 392Q131 354 89 354Q72 354 61.50 365.50Q51 377 51 396Q51 435 96.50 464Q142 493 210 493Q398 493 398 333L398 68Q398 13 429 13M329 108L329 270Q279 261 242 249Q205 237 171.50 218Q138 199 120.50 170.50Q103 142 103 104Q103 61 125 41Q147 21 182 21Q216 21 258.50 48.50Q301 76 329 108M247 640Q298 610 323 610Q376 610 416 660L426 652Q376 566 306 566Q274 566 221 599Q172 629 145 629Q91 629 52 579L42 587Q94 673 162 673Q191 673 247 640Z"  horiz-adv-x="484" vert-adv-y="1000"  />

      
      <glyph glyph-name="unie4" unicode="&#xe4;" d="M429 13Q442 13 452.50 26.50Q463 40 467 65L479 65Q468-11 405-11Q329-11 329 92Q230-11 139-11Q82-11 52 17.50Q22 46 22 91Q22 126 41.50 155.50Q61 185 90.50 205Q120 225 159.50 240.50Q199 256 233.50 264.50Q268 273 303 278L329 282L329 333Q329 409 302 445Q275 481 204 481Q172 481 147 468.50Q122 456 122 432Q122 423 126.50 412Q131 401 131 392Q131 354 89 354Q72 354 61.50 365.50Q51 377 51 396Q51 435 96.50 464Q142 493 210 493Q398 493 398 333L398 68Q398 13 429 13M329 108L329 270Q279 261 242 249Q205 237 171.50 218Q138 199 120.50 170.50Q103 142 103 104Q103 61 125 41Q147 21 182 21Q216 21 258.50 48.50Q301 76 329 108M180 637Q180 617 166 602Q152 587 130 587Q108 587 94 602Q80 617 80 637Q80 658 94 672.50Q108 687 130 687Q153 687 166.50 672.50Q180 658 180 637M373 637Q373 617 359 602Q345 587 323 587Q301 587 287 602Q273 617 273 637Q273 658 287 672.50Q301 687 323 687Q346 687 359.50 672.50Q373 658 373 637Z"  horiz-adv-x="484" vert-adv-y="1000"  />

      
      <glyph glyph-name="unie5" unicode="&#xe5;" d="M429 13Q442 13 452.50 26.50Q463 40 467 65L479 65Q468-11 405-11Q329-11 329 92Q230-11 139-11Q82-11 52 17.50Q22 46 22 91Q22 126 41.50 155.50Q61 185 90.50 205Q120 225 159.50 240.50Q199 256 233.50 264.50Q268 273 303 278L329 282L329 333Q329 409 302 445Q275 481 204 481Q172 481 147 468.50Q122 456 122 432Q122 423 126.50 412Q131 401 131 392Q131 354 89 354Q72 354 61.50 365.50Q51 377 51 396Q51 435 96.50 464Q142 493 210 493Q398 493 398 333L398 68Q398 13 429 13M329 108L329 270Q279 261 242 249Q205 237 171.50 218Q138 199 120.50 170.50Q103 142 103 104Q103 61 125 41Q147 21 182 21Q216 21 258.50 48.50Q301 76 329 108M139 630Q139 666 164 691.50Q189 717 225 717Q261 717 286.50 691.50Q312 666 312 630Q312 595 286.50 569.50Q261 544 225 544Q189 544 164 569.50Q139 595 139 630M175.50 680Q175.50 680 165.25 669.50Q155 659 155 630Q155 601 175.50 580.50Q196 560 225 560Q255 560 275.50 580.50Q296 601 296 630Q296 659 275.50 680Q255 701 225 701Q196 701 175.50 680Z"  horiz-adv-x="484" vert-adv-y="1000"  />

      
      <glyph glyph-name="unie6" unicode="&#xe6;" d="M548 493Q639 493 686.50 430Q734 367 736 281L406 281Q406 198 420 141.50Q434 85 458.50 59Q483 33 507.50 23Q532 13 562 13Q658 13 722 112L732 105Q665-11 544-11Q486-11 431 17Q376 45 347 106Q307 45 249 17Q191-11 144-11Q84-11 53 17.50Q22 46 22 91Q22 133 50 167.50Q78 202 123.50 224Q169 246 213.50 259Q258 272 303 278L329 282L329 333Q329 410 302.50 445.50Q276 481 205 481Q172 481 147 468.50Q122 456 122 432Q122 423 126.50 412.50Q131 402 131 393Q131 354 90 354Q73 354 62 365.50Q51 377 51 396Q51 435 97 464Q143 493 211 493Q336 493 378 415Q431 493 548 493M329 147L329 270Q279 261 242 249.50Q205 238 171.50 219.50Q138 201 120.50 172Q103 143 103 106Q103 21 187 21Q238 21 283.50 58Q329 95 329 147M406 293L660 293Q660 374 630 427.50Q600 481 540 481Q421 481 406 293Z"  horiz-adv-x="761" vert-adv-y="1000"  />

      
      <glyph glyph-name="unie7" unicode="&#xe7;" d="M269 13Q318 13 361 42Q404 71 429 128L440 123Q383-9 255-11L233-63Q254-56 285-56Q318-56 342-71.50Q366-87 366-118Q366-156 330-178.50Q294-201 242-201Q193-201 155-182L160-171Q194-189 236-189Q274-189 291.50-170.50Q309-152 309-125Q309-75 255-75Q242-75 223-81L215-74L241-11Q148-7 86.50 59Q25 125 25 236Q25 343 87 418Q149 493 266 493Q335 493 376 468.50Q417 444 417 408Q417 384 405 371.50Q393 359 375 359Q333 359 333 403Q333 408 334.50 419.50Q336 431 336 438Q336 456 316.50 468.50Q297 481 262 481Q194 481 150 424Q106 367 106 236Q106 125 151.50 69Q197 13 269 13Z"  horiz-adv-x="450" vert-adv-y="1000"  />

      
      <glyph glyph-name="unie8" unicode="&#xe8;" d="M248 493Q340 493 389 430Q438 367 440 281L106 281Q106 198 120 141.50Q134 85 159 59Q184 33 208.50 23Q233 13 263 13Q362 13 425 112L435 105Q368-11 244-11Q207-11 171.50 1.50Q136 14 101.50 40.50Q67 67 46 118Q25 169 25 238Q25 355 84.50 424Q144 493 248 493M106 293L363 293Q363 373 331.50 427Q300 481 241 481Q121 481 106 293M94 698Q94 726 120 726Q142 726 176 693L309 562L285 562Q184 621 136 652Q94 679 94 698Z"  horiz-adv-x="465" vert-adv-y="1000"  />

      
      <glyph glyph-name="unie9" unicode="&#xe9;" d="M248 493Q340 493 389 430Q438 367 440 281L106 281Q106 198 120 141.50Q134 85 159 59Q184 33 208.50 23Q233 13 263 13Q362 13 425 112L435 105Q368-11 244-11Q207-11 171.50 1.50Q136 14 101.50 40.50Q67 67 46 118Q25 169 25 238Q25 355 84.50 424Q144 493 248 493M106 293L363 293Q363 373 331.50 427Q300 481 241 481Q121 481 106 293M394 698Q394 679 352 652L203 562L179 562L312 693Q346 726 368 726Q394 726 394 698Z"  horiz-adv-x="465" vert-adv-y="1000"  />

      
      <glyph glyph-name="uniea" unicode="&#xea;" d="M248 493Q340 493 389 430Q438 367 440 281L106 281Q106 198 120 141.50Q134 85 159 59Q184 33 208.50 23Q233 13 263 13Q362 13 425 112L435 105Q368-11 244-11Q207-11 171.50 1.50Q136 14 101.50 40.50Q67 67 46 118Q25 169 25 238Q25 355 84.50 424Q144 493 248 493M106 293L363 293Q363 373 331.50 427Q300 481 241 481Q121 481 106 293M306 601Q274 625 237 657L168 601L107 555L92 555Q108 570 153 621Q167 637 184 659.50Q201 682 212 696L222 711L252 711Q289 657 321 621Q355 581 381 555L367 555L306 601Z"  horiz-adv-x="465" vert-adv-y="1000"  />

      
      <glyph glyph-name="unieb" unicode="&#xeb;" d="M248 493Q340 493 389 430Q438 367 440 281L106 281Q106 198 120 141.50Q134 85 159 59Q184 33 208.50 23Q233 13 263 13Q362 13 425 112L435 105Q368-11 244-11Q207-11 171.50 1.50Q136 14 101.50 40.50Q67 67 46 118Q25 169 25 238Q25 355 84.50 424Q144 493 248 493M106 293L363 293Q363 373 331.50 427Q300 481 241 481Q121 481 106 293M191 637Q191 617 177 602Q163 587 141 587Q119 587 105 602Q91 617 91 637Q91 658 105 672.50Q119 687 141 687Q164 687 177.50 672.50Q191 658 191 637M384 637Q384 617 370 602Q356 587 334 587Q312 587 298 602Q284 617 284 637Q284 658 298 672.50Q312 687 334 687Q357 687 370.50 672.50Q384 658 384 637Z"  horiz-adv-x="465" vert-adv-y="1000"  />

      
      <glyph glyph-name="uniec" unicode="&#xec;" d="M244 0L15 0L15 12L47 12Q76 12 85.50 21.50Q95 31 95 55L95 404Q95 430 82 436.50Q69 443 15 444L15 456Q92 461 164 495L164 55Q164 31 173.50 21.50Q183 12 211 12L244 12L244 0M-27 698Q-27 726-1 726Q21 726 55 693L188 562L164 562Q63 621 15 652Q-27 679-27 698Z"  horiz-adv-x="259" vert-adv-y="1000"  />

      
      <glyph glyph-name="unied" unicode="&#xed;" d="M244 0L15 0L15 12L47 12Q76 12 85.50 21.50Q95 31 95 55L95 404Q95 430 82 436.50Q69 443 15 444L15 456Q92 461 164 495L164 55Q164 31 173.50 21.50Q183 12 211 12L244 12L244 0M274 698Q274 679 232 652L83 562L59 562L192 693Q226 726 248 726Q274 726 274 698Z"  horiz-adv-x="259" vert-adv-y="1000"  />

      
      <glyph glyph-name="uniee" unicode="&#xee;" d="M244 0L15 0L15 12L47 12Q76 12 85.50 21.50Q95 31 95 55L95 404Q95 430 82 436.50Q69 443 15 444L15 456Q92 461 164 495L164 55Q164 31 173.50 21.50Q183 12 211 12L244 12L244 0M183 601Q151 625 114 657L45 601L-16 555L-31 555Q-15 570 30 621Q44 637 61 659.50Q78 682 88 696L99 711L129 711Q166 657 198 621Q232 581 258 555L244 555L183 601Z"  horiz-adv-x="259" vert-adv-y="1000"  />

      
      <glyph glyph-name="unief" unicode="&#xef;" d="M244 0L15 0L15 12L47 12Q76 12 85.50 21.50Q95 31 95 55L95 404Q95 430 82 436.50Q69 443 15 444L15 456Q92 461 164 495L164 55Q164 31 173.50 21.50Q183 12 211 12L244 12L244 0M76 637Q76 617 62 602Q48 587 26 587Q4 587-10 602Q-24 617-24 637Q-24 658-10 672.50Q4 687 26 687Q49 687 62.50 672.50Q76 658 76 637M269 637Q269 617 255 602Q241 587 219 587Q197 587 183 602Q169 617 169 637Q169 658 183 672.50Q197 687 219 687Q242 687 255.50 672.50Q269 658 269 637Z"  horiz-adv-x="259" vert-adv-y="1000"  />

      
      <glyph glyph-name="unif0" unicode="&#xf0;" d="M376 705L385 694L324 643Q503 525 503 273Q503 151 435 70Q367-11 264-11Q160-11 92.50 58Q25 127 25 240Q25 363 90 428Q155 493 262 493Q337 493 405 447Q393 497 361.50 543Q330 589 294 619L233 570L224 581L281 629Q209 689 99 704L99 716Q140 715 200.50 699.50Q261 684 312 653L376 705M422 252Q422 373 376.50 427Q331 481 262 481Q194 481 150 424.50Q106 368 106 240Q106 113 151 57Q196 1 264 1Q330 1 376 64.50Q422 128 422 252Z"  horiz-adv-x="528" vert-adv-y="1000"  />

      
      <glyph glyph-name="unif1" unicode="&#xf1;" d="M552 0L323 0L323 12L355 12Q384 12 393.50 21.50Q403 31 403 55L403 324Q403 373 392.50 404.50Q382 436 362.50 449Q343 462 327 465.50Q311 469 288 469Q236 469 164 424L164 55Q164 29 173 20.50Q182 12 211 12L244 12L244 0L15 0L15 12L46 12Q75 12 85 20.50Q95 29 95 55L95 404Q95 430 82 436.50Q69 443 15 444L15 456Q91 461 164 495L164 438Q243 493 317 493Q359 493 389 481Q419 469 435 452Q451 435 459.50 407.50Q468 380 470 359Q472 338 472 308L472 55Q472 31 481.50 21.50Q491 12 519 12L552 12L552 0M301 640Q352 610 377 610Q430 610 470 660L480 652Q430 566 360 566Q328 566 275 599Q226 629 199 629Q145 629 106 579L96 587Q148 673 216 673Q245 673 301 640Z"  horiz-adv-x="567" vert-adv-y="1000"  />

      
      <glyph glyph-name="unif2" unicode="&#xf2;" d="M503 240Q503 128 436 58.50Q369-11 264-11Q160-11 92.50 58Q25 127 25 240Q25 363 91 428Q157 493 264 493Q373 493 438 430Q503 367 503 240M422 240Q422 368 377 424.50Q332 481 264 481Q196 481 151 424.50Q106 368 106 240Q106 113 151 57Q196 1 264 1Q332 1 377 57Q422 113 422 240M119 698Q119 726 145 726Q167 726 201 693L334 562L310 562Q209 621 161 652Q119 679 119 698Z"  horiz-adv-x="528" vert-adv-y="1000"  />

      
      <glyph glyph-name="unif3" unicode="&#xf3;" d="M503 240Q503 128 436 58.50Q369-11 264-11Q160-11 92.50 58Q25 127 25 240Q25 363 91 428Q157 493 264 493Q373 493 438 430Q503 367 503 240M422 240Q422 368 377 424.50Q332 481 264 481Q196 481 151 424.50Q106 368 106 240Q106 113 151 57Q196 1 264 1Q332 1 377 57Q422 113 422 240M395 698Q395 679 353 652L204 562L180 562L313 693Q347 726 369 726Q395 726 395 698Z"  horiz-adv-x="528" vert-adv-y="1000"  />

      
      <glyph glyph-name="unif4" unicode="&#xf4;" d="M503 240Q503 128 436 58.50Q369-11 264-11Q160-11 92.50 58Q25 127 25 240Q25 363 91 428Q157 493 264 493Q373 493 438 430Q503 367 503 240M422 240Q422 368 377 424.50Q332 481 264 481Q196 481 151 424.50Q106 368 106 240Q106 113 151 57Q196 1 264 1Q332 1 377 57Q422 113 422 240M334 601Q302 625 265 657L196 601L135 555L120 555Q136 570 181 621Q195 637 212 659.50Q229 682 240 696L250 711L280 711Q317 657 349 621Q383 581 409 555L395 555L334 601Z"  horiz-adv-x="528" vert-adv-y="1000"  />

      
      <glyph glyph-name="unif5" unicode="&#xf5;" d="M503 240Q503 128 436 58.50Q369-11 264-11Q160-11 92.50 58Q25 127 25 240Q25 363 91 428Q157 493 264 493Q373 493 438 430Q503 367 503 240M422 240Q422 368 377 424.50Q332 481 264 481Q196 481 151 424.50Q106 368 106 240Q106 113 151 57Q196 1 264 1Q332 1 377 57Q422 113 422 240M284 640Q335 610 360 610Q413 610 453 660L463 652Q413 566 343 566Q311 566 258 599Q209 629 182 629Q128 629 89 579L79 587Q131 673 199 673Q228 673 284 640Z"  horiz-adv-x="528" vert-adv-y="1000"  />

      
      <glyph glyph-name="unif6" unicode="&#xf6;" d="M503 240Q503 128 436 58.50Q369-11 264-11Q160-11 92.50 58Q25 127 25 240Q25 363 91 428Q157 493 264 493Q373 493 438 430Q503 367 503 240M422 240Q422 368 377 424.50Q332 481 264 481Q196 481 151 424.50Q106 368 106 240Q106 113 151 57Q196 1 264 1Q332 1 377 57Q422 113 422 240M220 637Q220 617 206 602Q192 587 170 587Q148 587 134 602Q120 617 120 637Q120 658 134 672.50Q148 687 170 687Q193 687 206.50 672.50Q220 658 220 637M413 637Q413 617 399 602Q385 587 363 587Q341 587 327 602Q313 617 313 637Q313 658 327 672.50Q341 687 363 687Q386 687 399.50 672.50Q413 658 413 637Z"  horiz-adv-x="528" vert-adv-y="1000"  />

      
      <glyph glyph-name="unif7" unicode="&#xf7;" d="M519 329L9 329L9 345L519 345L519 329M300 228.50Q300 228.50 307 221.25Q314 214 314 193Q314 172 300 157.50Q286 143 264 143Q243 143 228.50 157.50Q214 172 214 193Q214 214 229 228.50Q244 243 264 243Q286 243 300 228.50M300 516.50Q300 516.50 307 509.25Q314 502 314 481Q314 460 300 445.50Q286 431 264 431Q243 431 228.50 445.50Q214 460 214 481Q214 502 229 516.50Q244 531 264 531Q286 531 300 516.50Z"  horiz-adv-x="528" vert-adv-y="1000"  />

      
      <glyph glyph-name="unif8" unicode="&#xf8;" d="M503 240Q503 128 436 58.50Q369-11 264-11Q163-11 98 51L41-12L31-2L88 62Q25 130 25 240Q25 363 91 428Q157 493 264 493Q366 493 427 439L477 495L488 485L438 429Q503 364 503 240M422 240Q422 327 398 385L132 89Q173 1 264 1Q332 1 377 57Q422 113 422 240M106 240Q106 156 126 104L392 400Q352 481 264 481Q196 481 151 424.50Q106 368 106 240Z"  horiz-adv-x="528" vert-adv-y="1000"  />

      
      <glyph glyph-name="unif9" unicode="&#xf9;" d="M549 0L400 0L400 54Q319-11 237-11Q196-11 166.50 2.50Q137 16 122.50 39Q108 62 101.50 86Q95 110 95 138L95 404Q95 430 82.50 436.50Q70 443 15 444L15 456Q95 461 164 495L164 136Q164 95 174.50 68.50Q185 42 204 31Q223 20 238.50 16.50Q254 13 274 13Q331 13 400 68L400 404Q400 430 387.50 436.50Q375 443 320 444L320 456Q394 462 469 495L469 55Q469 32 479 22Q489 12 517 12L549 12L549 0M127 698Q127 726 153 726Q175 726 209 693L342 562L318 562Q217 621 169 652Q127 679 127 698Z"  horiz-adv-x="564" vert-adv-y="1000"  />

      
      <glyph glyph-name="unifa" unicode="&#xfa;" d="M549 0L400 0L400 54Q319-11 237-11Q196-11 166.50 2.50Q137 16 122.50 39Q108 62 101.50 86Q95 110 95 138L95 404Q95 430 82.50 436.50Q70 443 15 444L15 456Q95 461 164 495L164 136Q164 95 174.50 68.50Q185 42 204 31Q223 20 238.50 16.50Q254 13 274 13Q331 13 400 68L400 404Q400 430 387.50 436.50Q375 443 320 444L320 456Q394 462 469 495L469 55Q469 32 479 22Q489 12 517 12L549 12L549 0M445 698Q445 679 403 652L254 562L230 562L363 693Q397 726 419 726Q445 726 445 698Z"  horiz-adv-x="564" vert-adv-y="1000"  />

      
      <glyph glyph-name="unifb" unicode="&#xfb;" d="M549 0L400 0L400 54Q319-11 237-11Q196-11 166.50 2.50Q137 16 122.50 39Q108 62 101.50 86Q95 110 95 138L95 404Q95 430 82.50 436.50Q70 443 15 444L15 456Q95 461 164 495L164 136Q164 95 174.50 68.50Q185 42 204 31Q223 20 238.50 16.50Q254 13 274 13Q331 13 400 68L400 404Q400 430 387.50 436.50Q375 443 320 444L320 456Q394 462 469 495L469 55Q469 32 479 22Q489 12 517 12L549 12L549 0M347 601Q315 625 278 657L209 601L148 555L133 555Q149 570 194 621Q208 637 225 659.50Q242 682 252 696L263 711L293 711Q330 657 362 621Q396 581 422 555L408 555L347 601Z"  horiz-adv-x="564" vert-adv-y="1000"  />

      
      <glyph glyph-name="unifc" unicode="&#xfc;" d="M549 0L400 0L400 54Q319-11 237-11Q196-11 166.50 2.50Q137 16 122.50 39Q108 62 101.50 86Q95 110 95 138L95 404Q95 430 82.50 436.50Q70 443 15 444L15 456Q95 461 164 495L164 136Q164 95 174.50 68.50Q185 42 204 31Q223 20 238.50 16.50Q254 13 274 13Q331 13 400 68L400 404Q400 430 387.50 436.50Q375 443 320 444L320 456Q394 462 469 495L469 55Q469 32 479 22Q489 12 517 12L549 12L549 0M237 637Q237 617 223 602Q209 587 187 587Q165 587 151 602Q137 617 137 637Q137 658 151 672.50Q165 687 187 687Q210 687 223.50 672.50Q237 658 237 637M430 637Q430 617 416 602Q402 587 380 587Q358 587 344 602Q330 617 330 637Q330 658 344 672.50Q358 687 380 687Q403 687 416.50 672.50Q430 658 430 637Z"  horiz-adv-x="564" vert-adv-y="1000"  />

      
      </font>
</defs>
</svg>
